<svg xmlns="http://www.w3.org/2000/svg" width="599" height="669" viewBox="0 0 599 669" fill="none"><path d="M320 669L240.5 186.5L396 206.5L335.5 669H320Z" fill="black"></path><path d="M290.5 178L269 29.5L414 0L290.5 178Z" fill="black"></path><path d="M301 183.5L427.5 3.5L556 103L580 165L560 216.5L301 183.5Z" fill="black"></path><path d="M386 669L393 312L355 583L367 669H386Z" fill="black"></path><path d="M233 206.5L310.5 669L147.5 656L61 452.5L233 206.5Z" fill="black"></path><path d="M49 452.5L54.5 366.5L0 519.5L126.5 630.5L49 452.5Z" fill="black"></path><path d="M77.5 411L61 385V439.5L77.5 411Z" fill="black"></path><path d="M247 178L276 130L283 183.5L247 178Z" fill="black"></path><path d="M584.5 157.5L566.5 105.5L590 112.782L599 120.5L594.957 133L584.5 157.5Z" fill="black"></path></svg>