<svg width="728" height="577" viewBox="0 0 728 577" fill="none" xmlns="http://www.w3.org/2000/svg">
<path d="M155.5 21L0 196.5L150.5 557.5L180.5 577L184.5 567L163.5 550L155.5 21Z" fill="#040404"/>
<path d="M4 316.5L29 291L42.5 323H32.5L8.5 437.5L4 316.5Z" fill="#040404"/>
<path d="M378.738 323L169.5 316.5L167.272 177.5L352.5 27L378.738 323Z" fill="#040404"/>
<path d="M166.5 167L163.5 21L253.5 97L166.5 167Z" fill="#040404"/>
<path d="M406 550L360 27L516.5 183L421 547L436 554.5L433 567L406 550Z" fill="#040404"/>
<path d="M554 170L524.5 183L492 304.5L536.5 288L554 170Z" fill="#040404"/>
<path d="M576.5 67.5L544.5 282.5L633 203.5L651 93L687.5 89.5L704.5 85.5H728V67.5L707 43.5L649 21V0L640.5 8.5V0L576.5 67.5Z" fill="#040404"/>
<path d="M354.5 512.5V331.5H378.738L392 465.5L371 509L383.5 517.5L378 525L354.5 512.5Z" fill="#040404"/>
<path d="M167.272 504V517.5L180.5 525V512.5L167.272 504Z" fill="#040404"/>
</svg>
