<svg width="3240" height="3240" viewBox="299 855 2642 1530" fill="none" xmlns="http://www.w3.org/2000/svg">
<style>
  path { fill: #000; }
  @media (prefers-color-scheme: dark) {
    path { fill: #FFF; }
  }
</style>
<path d="M1411.12 855H1550.14V1550.08C1473.36 1550.08 1411.12 1487.84 1411.12 1411.06V855Z" />
<path d="M1689.15 855C1765.93 855 1828.17 917.239 1828.17 994.015V1133.03C1828.17 1209.81 1765.93 1272.05 1689.15 1272.05V855Z" />
<path d="M1967.18 994.015C1967.18 917.239 2029.42 855 2106.2 855V1550.08H1967.18V994.015Z" />
<path d="M2384.23 924.508C2384.23 962.896 2353.11 994.015 2314.72 994.015C2276.33 994.015 2245.21 962.896 2245.21 924.508C2245.21 886.12 2276.33 855 2314.72 855C2353.11 855 2384.23 886.12 2384.23 924.508Z" />
<path d="M2384.23 1202.54C2384.23 1240.93 2353.11 1272.05 2314.72 1272.05C2276.33 1272.05 2245.21 1240.93 2245.21 1202.54C2245.21 1164.15 2276.33 1133.03 2314.72 1133.03C2353.11 1133.03 2384.23 1164.15 2384.23 1202.54Z" />
<path d="M2384.23 1480.57C2384.23 1518.96 2353.11 1550.08 2314.72 1550.08C2276.33 1550.08 2245.21 1518.96 2245.21 1480.57C2245.21 1442.18 2276.33 1411.06 2314.72 1411.06C2353.11 1411.06 2384.23 1442.18 2384.23 1480.57Z" />
<path d="M2523.24 1828.11C2523.24 1751.33 2585.48 1689.09 2662.26 1689.09V2384.17H2523.24V1828.11Z" />
<path d="M2940.29 1758.6C2940.29 1796.99 2909.17 1828.11 2870.78 1828.11C2832.39 1828.11 2801.27 1796.99 2801.27 1758.6C2801.27 1720.21 2832.39 1689.09 2870.78 1689.09C2909.17 1689.09 2940.29 1720.21 2940.29 1758.6Z" />
<path d="M2940.29 2036.63C2940.29 2075.02 2909.17 2106.14 2870.78 2106.14C2832.39 2106.14 2801.27 2075.02 2801.27 2036.63C2801.27 1998.24 2832.39 1967.12 2870.78 1967.12C2909.17 1967.12 2940.29 1998.24 2940.29 2036.63Z" />
<path d="M2940.29 2314.66C2940.29 2353.05 2909.17 2384.17 2870.78 2384.17C2832.39 2384.17 2801.27 2353.05 2801.27 2314.66C2801.27 2276.27 2832.39 2245.15 2870.78 2245.15C2909.17 2245.15 2940.29 2276.27 2940.29 2314.66Z" />
<path d="M2523.24 855H2662.26V1550.08H2523.24V855Z" />
<path d="M2801.27 860.792C2878.05 860.792 2940.29 923.031 2940.29 999.807V1555.87H2801.27V860.792Z" />
<path d="M299 1828.11C299 1751.33 361.239 1689.09 438.015 1689.09H716.046C716.046 1765.87 653.806 1828.11 577.031 1828.11H299Z" />
<path d="M299 2384.17C299 2307.39 361.239 2245.15 438.015 2245.15H716.046C716.046 2321.93 653.806 2384.17 577.031 2384.17H299Z" />
<path d="M299 1967.12H577.031C653.807 1967.12 716.046 2029.36 716.046 2106.14H438.015C361.239 2106.14 299 2043.9 299 1967.12Z" />
<path d="M855.061 1828.11C855.061 1751.33 917.3 1689.09 994.076 1689.09V2384.17C917.3 2384.17 855.061 2321.93 855.061 2245.15V1828.11Z" />
<path d="M1133.09 2106.14H1272.11V2245.15C1272.11 2321.93 1209.87 2384.17 1133.09 2384.17V2106.14Z" />
<path d="M1133.09 1689.09C1209.87 1689.09 1272.11 1751.33 1272.11 1828.11V1967.12H1133.09V1689.09Z" />
<path d="M1411.12 1828.11C1411.12 1751.33 1473.36 1689.09 1550.14 1689.09V2384.17C1473.36 2384.17 1411.12 2321.93 1411.12 2245.15V1828.11Z" />
<path d="M855.061 994.015C855.061 917.239 917.3 855 994.076 855V1550.08C917.3 1550.08 855.061 1487.84 855.061 1411.06V994.015Z" />
<path d="M1689.15 1689.09C1765.93 1689.09 1828.17 1751.33 1828.17 1828.11V2245.15C1828.17 2321.93 1765.93 2384.17 1689.15 2384.17V1689.09Z" />
<path d="M1133.09 855C1209.87 855 1272.11 917.239 1272.11 994.015V1411.06C1272.11 1487.84 1209.87 1550.08 1133.09 1550.08V855Z" />
<path d="M1967.18 1689.09H2106.2V2384.17C2029.42 2384.17 1967.18 2321.93 1967.18 2245.15V1689.09Z" />
<path d="M2245.21 1689.09C2321.99 1689.09 2384.23 1751.33 2384.23 1828.11V1967.12C2384.23 2043.9 2321.99 2106.14 2245.21 2106.14V1689.09Z" />
</svg>
