<svg width="1354" height="1151" viewBox="0 0 1354 1151" fill="none" xmlns="http://www.w3.org/2000/svg">
<ellipse cx="676.772" cy="575.135" rx="574.82" ry="371.507" transform="rotate(-24.2993 676.772 575.135)" fill="white"/>
<mask id="path-2-inside-1_159_46" fill="white">
<path d="M528.015 244.001C817.354 113.364 1120.36 159.055 1204.79 346.056C1289.22 533.056 1123.11 790.552 833.768 921.189C544.428 1051.83 241.427 1006.14 156.995 819.136C72.5642 632.135 238.676 374.638 528.015 244.001ZM1108.81 340.621C1044.51 188.922 802.486 146.439 568.242 245.732C333.998 345.026 196.235 548.496 260.538 700.195C324.842 851.894 566.863 894.377 801.107 795.083C1035.35 695.789 1173.11 492.32 1108.81 340.621Z"/>
</mask>
<path d="M528.015 244.001C817.354 113.364 1120.36 159.055 1204.79 346.056C1289.22 533.056 1123.11 790.552 833.768 921.189C544.428 1051.83 241.427 1006.14 156.995 819.136C72.5642 632.135 238.676 374.638 528.015 244.001ZM1108.81 340.621C1044.51 188.922 802.486 146.439 568.242 245.732C333.998 345.026 196.235 548.496 260.538 700.195C324.842 851.894 566.863 894.377 801.107 795.083C1035.35 695.789 1173.11 492.32 1108.81 340.621Z" fill="white"/>
<path d="M528.015 244.001L527.192 242.178V242.178L528.015 244.001ZM1204.79 346.056L1206.61 345.233V345.233L1204.79 346.056ZM833.768 921.189L834.591 923.012V923.012L833.768 921.189ZM156.995 819.136L155.172 819.959V819.959L156.995 819.136ZM1108.81 340.621L1110.65 339.84V339.84L1108.81 340.621ZM568.242 245.732L567.462 243.891V243.891L568.242 245.732ZM260.538 700.195L258.697 700.976V700.976L260.538 700.195ZM801.107 795.083L801.887 796.924V796.924L801.107 795.083ZM528.015 244.001L528.838 245.824C673.209 180.64 820.906 159.489 942.943 177.892C1065 196.298 1161.12 254.204 1202.96 346.879L1204.79 346.056L1206.61 345.233C1164.02 250.907 1066.42 192.467 943.539 173.936C820.634 155.403 672.16 176.725 527.192 242.178L528.015 244.001ZM1204.79 346.056L1202.96 346.879C1244.81 439.553 1224.68 549.944 1157.76 653.674C1090.86 757.384 977.316 854.183 832.945 919.367L833.768 921.189L834.591 923.012C979.559 857.559 1093.74 760.29 1161.12 655.843C1228.49 551.415 1249.2 439.559 1206.61 345.233L1204.79 346.056ZM833.768 921.189L832.945 919.367C688.574 984.55 540.877 1005.7 418.839 987.299C296.778 968.893 200.661 910.987 158.818 818.313L156.995 819.136L155.172 819.959C197.761 914.285 295.361 972.724 418.243 991.254C541.149 1009.79 689.623 988.466 834.591 923.012L833.768 921.189ZM156.995 819.136L158.818 818.313C116.975 725.638 137.105 615.247 204.022 511.516C270.925 407.806 384.467 311.008 528.838 245.824L528.015 244.001L527.192 242.178C382.224 307.632 268.04 404.9 200.661 509.348C133.294 613.776 112.584 725.633 155.172 819.959L156.995 819.136ZM1108.81 340.621L1110.65 339.84C1078.15 263.158 1000.83 214.328 902.6 197.085C804.344 179.837 684.886 194.116 567.462 243.891L568.242 245.732L569.023 247.574C685.843 198.055 804.518 183.929 901.908 201.024C999.322 218.124 1075.17 266.385 1106.97 341.402L1108.81 340.621ZM568.242 245.732L567.462 243.891C450.038 293.666 356.709 369.585 300.779 452.19C244.862 534.777 226.192 624.294 258.697 700.976L260.538 700.195L262.38 699.415C230.581 624.398 248.641 536.33 304.091 454.433C359.528 372.555 452.203 297.092 569.023 247.574L568.242 245.732ZM260.538 700.195L258.697 700.976C291.202 777.658 368.516 826.488 466.749 843.731C565.006 860.978 684.463 846.699 801.887 796.924L801.107 795.083L800.326 793.242C683.506 842.76 564.831 856.887 467.441 839.791C370.027 822.692 294.179 774.432 262.38 699.415L260.538 700.195ZM801.107 795.083L801.887 796.924C919.311 747.149 1012.64 671.231 1068.57 588.625C1124.49 506.04 1143.16 416.523 1110.65 339.84L1108.81 340.621L1106.97 341.402C1138.77 416.419 1120.71 504.486 1065.26 586.383C1009.82 668.26 917.146 743.723 800.326 793.242L801.107 795.083Z" fill="#A5BB8C" mask="url(#path-2-inside-1_159_46)"/>
<path d="M524.011 236.485C813.35 105.848 1116.35 151.54 1200.78 338.54C1285.21 525.541 1119.1 783.036 829.763 913.674C540.424 1044.31 237.423 998.62 152.991 811.62C68.5603 624.62 234.672 367.123 524.011 236.485ZM1104.81 333.105C1040.5 181.406 798.483 138.923 564.238 238.217C329.994 337.51 192.231 540.981 256.534 692.68C320.838 844.378 562.859 886.861 797.103 787.567C1031.35 688.274 1169.11 484.804 1104.81 333.105Z" fill="url(#paint0_linear_159_46)"/>
<path d="M840.524 621.519C831.724 630.319 811.191 633.519 802.024 634.019C802.024 634.019 796.043 652.018 798.023 652.018C800.004 652.018 809.623 649.918 832.023 647.518C860.023 644.518 900.523 647.518 924.023 649.018C942.823 650.218 960.543 649.018 962.023 649.018C963.504 649.018 968.543 633.518 966.523 632.018C964.504 630.518 951.923 631.618 935.523 632.018C919.123 632.418 903.023 629.518 897.023 628.018L946.523 455.518C959.857 455.685 991.923 455.918 1013.52 455.518C1035.12 455.118 1039.52 465.018 1039.02 470.018C1039.02 470.018 1035.02 488.518 1037.02 490.018C1039.02 491.518 1052 491.018 1053.52 490.018C1055.04 489.018 1070.02 407.018 1070.02 407.018H1053.52C1052.36 412.352 1048.72 424.118 1043.52 428.518C1038.32 432.918 1024.36 433.685 1018.02 433.518H952.023L988.023 297.019H1081.52C1103.02 297.019 1107.52 300.018 1112.02 309.018C1115.62 316.218 1106.5 349.518 1107.52 351.018C1108.54 352.518 1124.54 352.518 1125.52 351.018C1126.5 349.518 1144.5 269.018 1143.02 267.518C1141.54 266.018 1118.12 270.72 1078.52 275.52C1029.02 281.52 963.523 269.52 924.523 275.52C885.523 281.52 839.023 298.52 812.023 331.52C785.023 364.52 772.024 388.02 766.524 417.02C761.024 446.02 765.524 472.52 770.524 487.52C775.524 502.52 786.024 509.02 794.524 509.52C803.024 510.02 816.024 505.52 815.524 494.02C815.024 482.52 812.024 487.52 801.524 458.52C793.124 435.32 794.358 412.52 796.024 404.02C797.691 391.186 809.624 358.219 844.024 329.019C878.424 299.819 921.358 295.519 938.524 297.019C921.524 362.686 884.324 505.919 871.524 553.519C855.524 613.019 851.524 610.519 840.524 621.519Z" fill="white" stroke="#6297AE" stroke-width="2"/>
<path d="M837.524 618.518C828.724 627.318 808.191 630.518 799.024 631.018L795.023 649.018C797.023 648.518 806.623 646.918 829.023 644.518C857.023 641.518 897.523 644.518 921.023 646.018C939.823 647.218 954.19 646.518 959.023 646.018L963.523 629.018C960.023 628.851 948.923 628.618 932.523 629.018C916.123 629.418 900.023 626.518 894.023 625.018L943.523 452.518C956.857 452.684 988.923 452.918 1010.52 452.518C1032.12 452.118 1036.52 462.018 1036.02 467.018L1034.02 487.018H1050.52L1067.02 404.018H1050.52C1049.36 409.351 1045.72 421.118 1040.52 425.518C1035.32 429.918 1021.36 430.684 1015.02 430.518H949.023L985.023 294.018H1078.52C1100.02 294.018 1104.52 297.018 1109.02 306.018C1112.62 313.218 1107.52 337.018 1104.52 348.018H1122.52L1140.02 264.518C1135.02 265.185 1115.12 267.719 1075.52 272.519C1026.02 278.519 960.523 266.519 921.523 272.519C882.523 278.519 836.023 295.519 809.023 328.519C782.023 361.519 769.024 385.019 763.524 414.019C758.024 443.019 762.524 469.519 767.524 484.519C772.524 499.519 783.024 506.019 791.524 506.519C800.024 507.019 813.024 502.519 812.524 491.019C812.024 479.519 809.024 484.519 798.524 455.519C790.124 432.319 791.358 409.519 793.024 401.019C794.691 388.186 806.624 355.218 841.024 326.018C875.424 296.818 918.358 292.518 935.524 294.018C918.524 359.685 881.324 502.918 868.524 550.518C852.524 610.018 848.524 607.518 837.524 618.518Z" fill="url(#paint1_linear_159_46)"/>
<path fill-rule="evenodd" clip-rule="evenodd" d="M624.004 436.518C608.404 462.918 624.504 517.184 634.504 541.018C631.837 542.518 622.704 547.818 607.504 557.018C592.304 566.218 568.837 587.851 559.004 597.518L548.004 700.018C550.171 703.851 556.004 712.518 562.004 716.518C563.031 717.202 564.18 718 565.44 718.874C573.376 724.381 585.695 732.928 599.504 735.518C615.504 738.518 634.504 738.518 668.004 730.518C694.804 724.118 722.837 701.184 733.504 690.518C739.837 697.518 756.504 714.018 772.504 724.018C792.215 736.337 811.926 737.972 818.235 738.495L818.504 738.518C824.504 739.018 842.004 736.518 862.004 724.018C878.004 714.018 894.504 683.018 895.004 681.518C895.504 680.018 887.504 675.518 887.504 675.518C882.337 682.518 868.504 697.218 854.504 700.018C837.004 703.518 826.504 700.018 808.004 693.018C793.204 687.418 773.171 664.351 765.004 653.518C767.337 650.184 773.504 642.018 779.504 636.018C787.004 628.518 814.004 584.018 818.504 574.518C823.004 565.018 836.004 546.518 842.004 539.018C846.804 533.018 873.504 526.518 875.004 526.518C876.504 526.518 876.004 518.518 875.004 517.518C874.004 516.518 767.504 517.518 767.504 517.518C767.504 517.518 766.004 525.518 767.504 526.518C768.485 527.172 772.506 527.698 776.401 528.207C778.459 528.476 780.483 528.741 782.004 529.018C787.504 530.018 795.504 535.518 799.004 543.518C802.504 551.518 795.504 569.018 788.504 586.518C782.904 600.518 762.171 628.018 752.504 640.018C746.171 631.684 730.904 611.518 720.504 597.518C710.104 583.518 693.504 552.684 686.504 539.018C696.004 534.518 717.604 523.418 728.004 515.018C729.512 513.799 730.792 512.776 731.9 511.89C734.892 509.497 736.631 508.108 738.239 506.581C740.467 504.465 742.446 502.087 747.167 496.414C748.646 494.636 750.394 492.535 752.504 490.018C768.004 471.518 766.504 434.018 752.504 416.018C738.504 398.018 710.504 391.518 689.504 391.518C668.504 391.518 643.504 403.518 624.004 436.518ZM645.504 560.518C653.504 577.018 672.904 614.818 686.504 634.018C700.104 653.218 714.837 671.351 720.504 678.018C711.004 687.851 685.204 707.918 658.004 709.518C624.004 711.518 594.004 695.518 586.504 660.018C579.004 624.518 591.004 601.018 607.504 586.518C620.704 574.918 638.337 564.351 645.504 560.518ZM657.004 441.518C650.604 466.318 668.337 504.184 678.004 520.018C685.837 516.684 704.704 506.718 717.504 493.518C730.304 480.318 732.837 474.351 732.504 473.018C735.171 463.518 738.004 440.718 728.004 425.518C718.004 410.318 701.837 406.851 695.004 407.018C685.004 408.184 663.404 416.718 657.004 441.518Z" fill="white"/>
<path d="M818.504 738.518C824.504 739.018 842.004 736.518 862.004 724.018C878.004 714.018 894.504 683.018 895.004 681.518C895.504 680.018 887.504 675.518 887.504 675.518C882.337 682.518 868.504 697.218 854.504 700.018C837.004 703.518 826.504 700.018 808.004 693.018C793.204 687.418 773.171 664.351 765.004 653.518C767.337 650.184 773.504 642.018 779.504 636.018C787.004 628.518 814.004 584.018 818.504 574.518C823.004 565.018 836.004 546.518 842.004 539.018C846.804 533.018 873.504 526.518 875.004 526.518C876.504 526.518 876.004 518.518 875.004 517.518C874.004 516.518 767.504 517.518 767.504 517.518C767.504 517.518 766.004 525.518 767.504 526.518C768.485 527.172 772.506 527.698 776.401 528.207C778.459 528.476 780.483 528.741 782.004 529.018C787.504 530.018 795.504 535.518 799.004 543.518C802.504 551.518 795.504 569.018 788.504 586.518C782.904 600.518 762.171 628.018 752.504 640.018C746.171 631.684 730.904 611.518 720.504 597.518C710.104 583.518 693.504 552.684 686.504 539.018C696.004 534.518 717.604 523.418 728.004 515.018C729.512 513.799 730.792 512.776 731.9 511.89C734.892 509.497 736.631 508.108 738.239 506.581C740.467 504.465 742.446 502.087 747.167 496.414C748.646 494.636 750.394 492.535 752.504 490.018C768.004 471.518 766.504 434.018 752.504 416.018C738.504 398.018 710.504 391.518 689.504 391.518C668.504 391.518 643.504 403.518 624.004 436.518C608.404 462.918 624.504 517.184 634.504 541.018C631.837 542.518 622.704 547.818 607.504 557.018C592.304 566.218 568.837 587.851 559.004 597.518L548.004 700.018C550.171 703.851 556.004 712.518 562.004 716.518C563.031 717.202 564.18 718 565.44 718.874C573.376 724.381 585.695 732.928 599.504 735.518C615.504 738.518 634.504 738.518 668.004 730.518C694.804 724.118 722.837 701.184 733.504 690.518C739.837 697.518 756.504 714.018 772.504 724.018C792.215 736.337 811.926 737.972 818.235 738.495M818.504 738.518L818.235 738.495M818.504 738.518C818.417 738.51 818.328 738.503 818.235 738.495M645.504 560.518C653.504 577.018 672.904 614.818 686.504 634.018C700.104 653.218 714.837 671.351 720.504 678.018C711.004 687.851 685.204 707.918 658.004 709.518C624.004 711.518 594.004 695.518 586.504 660.018C579.004 624.518 591.004 601.018 607.504 586.518C620.704 574.918 638.337 564.351 645.504 560.518ZM678.004 520.018C668.337 504.184 650.604 466.318 657.004 441.518C663.404 416.718 685.004 408.184 695.004 407.018C701.837 406.851 718.004 410.318 728.004 425.518C738.004 440.718 735.171 463.518 732.504 473.018C732.837 474.351 730.304 480.318 717.504 493.518C704.704 506.718 685.837 516.684 678.004 520.018Z" stroke="#A5BB8C" stroke-width="2"/>
<path fill-rule="evenodd" clip-rule="evenodd" d="M623.004 433.518C607.404 459.918 623.504 514.184 633.504 538.018C630.837 539.518 621.704 544.818 606.504 554.018C591.304 563.218 567.837 584.851 558.004 594.518L547.004 697.018C549.171 700.851 555.004 709.518 561.004 713.518C562.031 714.202 563.18 715 564.44 715.874C572.376 721.381 584.695 729.928 598.504 732.518C614.504 735.518 633.504 735.518 667.004 727.518C693.804 721.118 721.837 698.184 732.504 687.518C738.837 694.518 755.504 711.018 771.504 721.018C791.215 733.337 810.926 734.972 817.235 735.495L817.504 735.518C823.504 736.018 841.004 733.518 861.004 721.018C877.004 711.018 889.671 688.518 894.004 678.518L886.504 672.518C881.337 679.518 867.504 694.218 853.504 697.018C836.004 700.518 825.504 697.018 807.004 690.018C792.204 684.418 772.171 661.351 764.004 650.518C766.337 647.184 772.504 639.018 778.504 633.018C786.004 625.518 813.004 581.018 817.504 571.518C822.004 562.018 835.004 543.518 841.004 536.018C845.804 530.018 865.004 525.184 874.004 523.518V514.518H766.504V523.518C769.504 524.018 776.604 525.218 781.004 526.018C786.504 527.018 794.504 532.518 798.004 540.518C801.504 548.518 794.504 566.018 787.504 583.518C781.904 597.518 761.171 625.018 751.504 637.018C745.171 628.684 729.904 608.518 719.504 594.518C709.104 580.518 692.504 549.684 685.504 536.018C695.004 531.518 716.604 520.418 727.004 512.018C728.512 510.799 729.792 509.776 730.9 508.89C733.892 506.497 735.631 505.108 737.239 503.581C739.467 501.465 741.446 499.087 746.167 493.414C747.646 491.636 749.394 489.535 751.504 487.018C767.004 468.518 765.504 431.018 751.504 413.018C737.504 395.018 709.504 388.518 688.504 388.518C667.504 388.518 642.504 400.518 623.004 433.518ZM644.504 557.518C652.504 574.018 671.904 611.818 685.504 631.018C699.104 650.218 713.837 668.351 719.504 675.018C710.004 684.851 684.204 704.918 657.004 706.518C623.004 708.518 593.004 692.518 585.504 657.018C578.004 621.518 590.004 598.018 606.504 583.518C619.704 571.918 637.337 561.351 644.504 557.518ZM656.004 438.518C649.604 463.318 667.337 501.184 677.004 517.018C684.837 513.684 703.704 503.718 716.504 490.518C729.304 477.318 731.837 471.351 731.504 470.018C734.171 460.518 737.004 437.718 727.004 422.518C717.004 407.318 700.837 403.851 694.004 404.018C684.004 405.184 662.404 413.718 656.004 438.518Z" fill="url(#paint2_linear_159_46)"/>
<path fill-rule="evenodd" clip-rule="evenodd" d="M539.658 745.018C549.991 747.684 554.404 752.118 572.004 750.518C579.428 749.843 597.004 751.82 606.158 750.518C608.004 752.518 607.504 765.018 606.158 766.518C604.811 768.018 570.057 767.518 539.658 763.518C509.258 759.518 478.504 765.518 476.158 766.518C473.811 767.518 496.558 704.118 498.158 690.518C499.758 676.918 502.158 657.518 503.158 649.518H390.158C355.991 700.184 281.558 804.317 257.158 815.518C226.658 829.518 234.157 832.018 211.158 834.518C188.158 837.018 159.658 833.518 162.158 807.018C164.658 780.518 192.656 794.018 206.156 796.518C219.656 799.018 241.159 796.518 257.158 781.518C269.956 769.518 283.157 756.184 288.158 751.018L533.158 408.018C500.658 408.351 431.058 414.418 412.658 436.018C389.658 463.018 387.158 480.518 398.158 500.518C409.157 520.518 377.658 546.517 362.158 523.518C346.658 500.518 355.658 468.018 369.158 442.518C382.658 417.018 426.658 397.518 457.158 392.018C481.558 387.618 527.991 383.518 548.158 382.018C554.158 381.684 567.958 379.918 575.158 375.518C582.358 371.118 590.811 362.518 591.158 363.518C591.504 364.518 539.658 745.018 539.658 745.018ZM405.503 625.518L505.003 624.518L534.503 440.018L405.503 625.518Z" fill="white"/>
<path d="M606.158 750.518C597.004 751.82 579.428 749.843 572.004 750.518C554.404 752.118 549.991 747.684 539.658 745.018C539.658 745.018 591.504 364.518 591.158 363.518C590.811 362.518 582.358 371.118 575.158 375.518C567.958 379.918 554.158 381.684 548.158 382.018C527.991 383.518 481.558 387.618 457.158 392.018C426.658 397.518 382.658 417.018 369.158 442.518C355.658 468.018 346.658 500.518 362.158 523.518C377.658 546.517 409.157 520.518 398.158 500.518C387.158 480.518 389.658 463.018 412.658 436.018C431.058 414.418 500.658 408.351 533.158 408.018L288.158 751.018C283.157 756.184 269.956 769.518 257.158 781.518C241.159 796.518 219.656 799.018 206.156 796.518C192.656 794.018 164.658 780.518 162.158 807.018C159.658 833.518 188.158 837.018 211.158 834.518C234.157 832.018 226.658 829.518 257.158 815.518C281.558 804.317 355.991 700.184 390.158 649.518H503.158C502.158 657.518 499.758 676.918 498.158 690.518C496.558 704.118 473.811 767.518 476.158 766.518C478.504 765.518 509.258 759.518 539.658 763.518C570.057 767.518 604.811 768.018 606.158 766.518C607.504 765.018 608.004 752.518 606.158 750.518ZM606.158 750.518C606.158 748.518 586.504 750.518 586.504 750.518M405.503 625.518L505.003 624.518L534.503 440.018L405.503 625.518Z" stroke="#6297AE" stroke-width="2"/>
<path fill-rule="evenodd" clip-rule="evenodd" d="M536.658 741.018C546.991 743.684 572.058 748.618 589.658 747.018C597.082 746.343 601.149 745.762 603.158 745.292V744.018C604.795 744.21 605.91 744.648 603.158 745.292V762.518C593.658 763.184 567.057 763.518 536.658 759.518C506.258 755.518 481.658 759.851 473.158 762.518C479.824 742.851 493.558 700.118 495.158 686.518C496.758 672.918 499.158 653.518 500.158 645.518H387.158C352.991 696.184 278.558 800.317 254.158 811.518C223.658 825.518 231.157 828.018 208.158 830.518C185.158 833.018 156.658 829.518 159.158 803.018C161.658 776.518 189.656 790.017 203.156 792.518C216.656 795.018 238.159 792.518 254.158 777.518C266.956 765.518 280.157 752.184 285.158 747.018L530.158 404.018C497.658 404.351 428.058 410.418 409.658 432.018C386.658 459.018 384.158 476.518 395.158 496.518C406.157 516.518 374.658 542.517 359.158 519.518C343.658 496.518 352.658 464.018 366.158 438.518C379.658 413.018 423.658 393.518 454.158 388.018C478.558 383.618 524.991 379.518 545.158 378.018C551.158 377.684 564.958 375.918 572.158 371.518C579.358 367.118 585.824 361.684 588.158 359.518L536.658 741.018ZM402.503 621.518L502.003 620.518L531.503 436.018L402.503 621.518Z" fill="url(#paint3_linear_159_46)"/>
<defs>
<linearGradient id="paint0_linear_159_46" x1="676.887" y1="162.01" x2="676.887" y2="988.15" gradientUnits="userSpaceOnUse">
<stop stop-color="#BBEC83"/>
<stop offset="1" stop-color="#809F5D"/>
</linearGradient>
<linearGradient id="paint1_linear_159_46" x1="950.514" y1="264.518" x2="950.514" y2="649.018" gradientUnits="userSpaceOnUse">
<stop stop-color="#88CDFF"/>
<stop offset="1" stop-color="#012BFD"/>
</linearGradient>
<linearGradient id="paint2_linear_159_46" x1="720.504" y1="388.518" x2="720.504" y2="735.577" gradientUnits="userSpaceOnUse">
<stop stop-color="#BBEC83"/>
<stop offset="1" stop-color="#7F9E5C"/>
</linearGradient>
<linearGradient id="paint3_linear_159_46" x1="381.917" y1="359.518" x2="381.917" y2="831.189" gradientUnits="userSpaceOnUse">
<stop stop-color="#88CDFF"/>
<stop offset="1" stop-color="#012BFD"/>
</linearGradient>
</defs>
</svg>
