<svg width="1103" height="769" viewBox="0 0 1103 769" fill="none" xmlns="http://www.w3.org/2000/svg">
<g filter="url(#filter0_d_168_91)">
<path d="M536.813 185.211L543.8 194.034C542.697 198.812 534.312 212.119 509.6 227.117C478.71 245.864 471.723 251.746 433.478 241.453C395.233 231.161 356.252 208.37 334.187 217.56C316.536 224.912 307.71 240.228 305.503 246.967C298.516 261.916 293.736 297.841 330.51 321.955C376.478 352.097 433.478 347.686 484.226 372.682C534.974 397.679 568.807 419.734 576.897 448.773C584.987 477.813 586.826 532.216 529.826 591.031C472.826 649.845 378.684 645.434 353.31 641.39C327.936 637.347 203.271 593.236 213.936 521.189C224.6 449.141 258.065 436.643 286.749 430.762C315.433 424.88 357.723 421.572 388.245 443.995C418.768 466.418 429.433 482.224 433.478 503.177C437.523 524.129 433.845 537.73 425.387 549.861C416.929 561.991 395.968 574.489 368.755 572.283C346.985 570.519 323.891 544.837 315.065 532.216L326.097 523.762C327.323 525.232 331.025 528.981 336.026 532.216C342.278 536.26 355.516 535.892 365.445 530.378C375.374 524.864 387.51 513.837 388.245 503.177C388.981 492.517 386.407 482.592 375.007 470.461C363.607 458.331 332.716 452.449 308.445 459.434C284.174 466.418 263.213 493.252 261.007 507.955C258.8 522.659 262.845 573.754 319.478 600.22C376.11 626.687 430.536 616.027 457.013 605.734C483.491 595.442 515.484 560.888 521.368 542.876C527.252 524.864 530.194 487.37 496.729 452.449C463.265 417.528 370.962 392.165 336.394 381.137C301.826 370.109 275.349 341.437 267.994 326.366C260.639 311.295 258.065 295.489 267.994 258.362C277.923 221.236 331.245 187.417 359.562 181.903C387.878 176.389 414.723 185.211 421.71 187.417C428.697 189.623 453.704 204.694 484.594 204.694C509.306 204.694 529.704 191.706 536.813 185.211Z" fill="url(#paint0_radial_168_91)"/>
<path d="M588.387 571.234C587.529 573.929 587.578 581.085 594.639 588.143C601.699 595.201 609.348 599.416 612.29 600.641L659.729 596.597V618.285L526.974 660.558L530.565 595.513C531.203 594.879 531.838 594.238 532.467 593.588C590.464 533.745 588.845 477.956 580.44 447.787C576.095 432.191 564.93 418.811 548.813 406.308C546.428 404.457 543.927 402.622 541.314 400.794L557.129 114.32L532.874 183.757C526.473 189.026 512.707 197.376 495.693 200.114L563.013 7.71938L603.465 0L588.387 571.234Z" fill="url(#paint1_radial_168_91)"/>
<path d="M246.755 17.6443C257.91 13.2332 287.648 5.07273 317.361 7.71938C327.391 8.61277 333.541 9.02866 337.061 9.14522L336.852 7.71938C340.749 8.44989 343.969 9.37396 337.061 9.14522L361.86 177.762C360.862 177.923 359.861 178.1 358.859 178.295C348.113 180.388 334.222 186.264 320.408 194.636L315.155 140.419C311.345 160.072 306.932 182.801 302.171 207.279C284.823 220.988 269.479 238.574 264.441 257.413C259.432 276.144 257.499 289.766 257.837 300.748C258.177 311.837 260.828 320.066 264.689 327.978C266.889 332.487 270.596 337.987 275.535 343.812C269.145 376.446 262.9 408.243 257.271 436.743C251.679 439.708 246.194 443.518 241.026 448.523C226.974 462.132 215.704 484.128 210.298 520.651C207.57 539.085 213.198 555.692 223.383 570.17C207.822 591.59 180.284 617.566 165.852 626.005L165.065 626.465C145.458 637.934 111.951 657.534 69.1355 651.368C34.4206 646.369 8.58064 618.408 0 605.052L47.4387 550.282C46.826 556.654 50.3075 573.955 69.1355 592.187C87.9638 610.419 104.194 613.752 109.955 613.14C118.781 616.325 142.316 616.595 165.852 592.187C195.271 561.677 217.335 515.361 234.252 399.203C251.168 283.045 280.955 101.089 284.265 73.5186C286.912 51.4632 285.368 46.1944 284.265 46.317C280.219 40.5579 264.554 33.8182 234.252 52.9329C196.374 76.8262 183.135 112.482 178.723 133.067C175.192 149.535 168.671 197.273 165.852 219.083L116.206 250.328C119.884 219.083 134.961 144.316 165.852 95.2056C196.742 46.0957 232.658 23.0356 246.755 17.6443Z" fill="url(#paint2_radial_168_91)"/>
<path d="M357.092 573.236C360.825 574.673 364.636 575.637 368.458 575.947L369.785 576.044C374.874 576.374 379.758 576.211 384.4 575.649L358.181 584.467L357.092 573.236Z" fill="url(#paint3_radial_168_91)"/>
<path d="M540.833 409.498C542.018 410.369 543.175 411.241 544.303 412.116C559.813 424.148 569.609 436.316 573.354 449.76C580.94 476.987 583.082 528.11 531.187 584.244L540.833 409.498Z" fill="url(#paint4_radial_168_91)"/>
<path d="M343.317 431.076C358.465 432.931 373.376 437.633 386.068 446.957C392.869 451.953 398.627 456.586 403.514 460.986L403.781 462.795L404.197 461.603C409.851 466.754 414.308 471.592 417.842 476.333C421.279 480.945 423.867 485.498 425.832 490.207L399.987 564.196C391.631 567.511 381.567 569.44 370.267 568.708L369.052 568.62C364.89 568.282 360.587 566.94 356.283 564.883L353.69 538.126C358.288 537.424 363.007 535.938 367.231 533.592C372.505 530.663 378.345 526.289 383.008 521.186C387.601 516.16 391.463 509.974 391.915 503.429C392.31 497.701 391.821 492.014 389.625 486.092C387.438 480.195 383.634 474.273 377.687 467.944C371.194 461.035 359.697 456.329 347.181 454.157C346.634 454.062 346.082 453.974 345.528 453.888L343.317 431.076Z" fill="url(#paint5_radial_168_91)"/>
<path d="M255.362 446.406C244.263 502.522 235.916 543.958 234.252 550.282C233.246 554.1 230.982 558.662 227.835 563.641C219.491 550.923 215.322 536.942 217.574 521.726C222.832 486.202 233.626 465.925 246.144 453.803C249.107 450.933 252.192 448.495 255.362 446.406Z" fill="url(#paint6_radial_168_91)"/>
<path d="M346.262 461.462C357.955 463.541 367.466 467.807 372.327 472.978C377.779 478.78 380.963 483.886 382.729 488.648C384.486 493.387 384.917 497.993 384.577 502.924C384.293 507.039 381.718 511.697 377.578 516.228C373.507 520.683 368.315 524.58 363.659 527.165C360.383 528.984 356.659 530.19 352.98 530.795L346.262 461.462Z" fill="url(#paint7_radial_168_91)"/>
<path d="M421.074 413.37C430.499 417.087 439.774 421.045 448.53 425.225L429.248 480.425C427.67 477.587 425.848 474.77 423.739 471.941C419.388 466.103 413.853 460.258 406.826 454.09L421.074 413.37Z" fill="url(#paint8_radial_168_91)"/>
<path d="M338.93 385.792C352.663 390.089 373.106 396.144 395.101 403.783L401.884 449.901C398.393 447.036 394.583 444.088 390.423 441.033C376.065 430.484 359.307 425.425 342.593 423.59L338.93 385.792Z" fill="url(#paint9_radial_168_91)"/>
<path d="M439.492 360.734C449.102 363.191 458.615 366.016 467.958 369.604L450.969 418.241C442.098 414.03 432.811 410.088 423.504 406.425L439.492 360.734Z" fill="url(#paint10_radial_168_91)"/>
<path d="M333.336 328.058C350.273 338.167 368.486 344.088 387.002 348.713L393.897 395.593C371.437 387.905 350.925 381.893 338.16 377.839L333.336 328.058Z" fill="url(#paint11_radial_168_91)"/>
<path d="M470.383 362.661C460.985 359.066 451.457 356.223 441.929 353.769L479.069 247.626C488.708 244.454 498.125 238.382 511.509 230.26L512.679 229.543C514.58 228.369 516.386 227.203 518.101 226.051L470.383 362.661Z" fill="url(#paint12_radial_168_91)"/>
<path d="M335.602 220.953C340.275 219.006 346.111 218.651 353.134 219.611C357.885 220.26 363.035 221.491 368.531 223.118L385.842 340.83C367.382 336.062 349.764 329.95 333.577 319.563L332.527 318.882C332.498 318.863 332.47 318.843 332.441 318.824L323.655 228.142C327.017 225.389 330.985 222.876 335.602 220.953Z" fill="url(#paint13_radial_168_91)"/>
<path d="M299.946 218.722C292.821 255.339 285.033 295.275 277.385 334.358C274.683 330.762 272.63 327.483 271.299 324.754C267.805 317.595 265.491 310.385 265.188 300.522C264.882 290.551 266.627 277.707 271.547 259.311C275.377 244.99 286.249 230.86 299.946 218.722Z" fill="url(#paint14_radial_168_91)"/>
<path d="M522.357 213.867C518.586 216.853 514.108 220.02 508.815 223.288L507.691 223.975C496.764 230.607 489.148 235.4 482.263 238.498L492.967 207.903C507.413 206.306 519.939 200.858 528.752 195.559L522.357 213.867Z" fill="url(#paint15_radial_168_91)"/>
<path d="M367.357 215.138C362.781 213.885 358.351 212.904 354.13 212.327C346.443 211.276 339.132 211.518 332.773 214.167C329.107 215.694 325.797 217.541 322.825 219.579L321.198 202.795C335.456 193.75 349.817 187.546 360.265 185.511C361.155 185.338 362.043 185.18 362.93 185.035L367.357 215.138Z" fill="url(#paint16_radial_168_91)"/>
<path d="M602.361 544.032V486.688L618.91 492.57V544.032C620.994 548.321 627.956 556.898 639.135 556.898C650.315 556.898 656.542 548.321 658.258 544.032V495.878L676.277 502.127V579.321L658.258 575.645V559.839C654.703 563.392 643.107 569.469 625.161 565.352C607.215 561.235 602.484 549.424 602.361 544.032Z" fill="url(#paint17_radial_168_91)"/>
<path fill-rule="evenodd" clip-rule="evenodd" d="M836.613 494.408C843.232 494.04 860.884 494.775 866.768 518.301C872.652 541.826 871.548 553.222 866.768 568.661C861.987 584.099 852.426 596.597 836.613 596.597C823.963 596.597 810.503 589.246 805.355 585.57V631.886H787.703V506.171H810.135V518.301L817.49 509.11C821.658 504.332 831.317 494.702 836.613 494.408ZM849.064 522.645C844.284 516.763 842.445 514.925 832.884 515.293C823.323 515.66 818.542 521.91 815.232 525.585C812.585 528.525 811.923 531.466 811.922 532.569C810.942 538.328 809.569 552.566 811.922 563.447C814.864 577.048 828.471 579.988 832.884 579.988C837.297 579.988 845.755 575.21 849.064 563.447C852.374 551.684 853.845 528.526 849.064 522.645Z" fill="url(#paint18_radial_168_91)"/>
<path fill-rule="evenodd" clip-rule="evenodd" d="M714.523 525.285C715.503 518.914 722.907 506.171 744.677 506.171C771.89 506.171 778.877 538.886 771.155 568.661C763.432 598.435 747.252 597.333 736.587 596.597C728.056 596.009 715.136 586.795 709.742 582.261V626.005L692.826 617.55V506.171H714.523V525.285ZM748.671 525.585C743.522 521.542 730.652 521.91 726.239 525.585C722.708 528.526 718.394 533.917 716.677 536.245C715.329 540.779 713.441 552.566 716.677 563.447C720.722 577.048 733.593 578.151 740.581 577.048C747.568 575.945 754.555 570.799 757.497 556.463C760.438 542.127 753.819 529.629 748.671 525.585Z" fill="url(#paint19_radial_168_91)"/>
<path fill-rule="evenodd" clip-rule="evenodd" d="M925.239 461.691C932.961 458.751 950.245 458.016 959.806 474.557C969.368 491.099 962.381 534.842 959.806 546.237C957.232 557.632 932.961 585.57 911.632 582.261C890.303 578.953 883.684 568.661 879.271 558.735C875.741 550.795 877.8 528.471 879.271 518.301C880.497 514.258 884.052 503.818 888.465 494.408C893.981 482.645 917.516 464.632 925.239 461.691ZM943.574 500.222C939.529 487.356 930.703 489.194 923.716 490.664C916.729 492.135 911.213 499.119 906.432 507.206C902.608 513.675 900.548 524.85 900.548 524.85C900.548 524.85 900.548 541.392 901.652 545.803C902.889 550.75 903.123 552.787 906.432 555.529C909.742 558.272 911.585 557.953 916.729 559.403C931.071 563.447 941 542.494 943.574 532.569C946.148 522.645 947.619 513.087 943.574 500.222Z" fill="url(#paint20_radial_168_91)"/>
<path d="M1024.9 439.637C1022.69 439.637 1016.95 440.813 1011.66 445.518C1006.36 450.223 1001.12 458.261 999.155 461.691V558.735L973.045 568.661V439.637L992.536 428.242V445.518C994.742 440.74 999.964 429.491 1003.2 422.728C1006.44 415.964 1019.01 410.107 1024.9 408.024V439.637Z" fill="url(#paint21_radial_168_91)"/>
<path d="M1059.46 370.53L1078.95 355.091V391.115L1059.46 409.127L1062.41 494.408L1083 474.557V509.11C1074.91 518.301 1057.04 535.578 1050.27 531.167C1043.5 526.756 1041.57 518.546 1041.45 514.993V422.728L1028.21 428.242V398.834L1041.45 391.115V355.091L1059.46 316.127V370.53Z" fill="url(#paint22_radial_168_91)"/>
<path d="M228.677 714.829C228.677 715.574 228.794 716.319 229.03 717.064C229.265 717.809 229.677 718.495 230.265 719.122C230.893 719.71 231.717 720.22 232.737 720.652C233.756 721.044 235.031 721.279 236.561 721.357V702.007C236.561 700.792 236.09 699.87 235.149 699.243C234.247 698.577 232.972 698.243 231.324 698.243C231.324 697.577 231.56 697.008 232.03 696.538C232.501 696.028 233.325 695.773 234.502 695.773C235.522 695.773 236.424 695.95 237.208 696.302C238.032 696.655 238.699 697.087 239.209 697.596C239.719 697.087 240.366 696.655 241.15 696.302C241.974 695.95 242.896 695.773 243.916 695.773C245.093 695.773 245.916 696.028 246.387 696.538C246.858 697.008 247.093 697.577 247.093 698.243C245.485 698.243 244.21 698.577 243.269 699.243C242.327 699.87 241.857 700.792 241.857 702.007V721.004C243.543 720.73 245.308 720.377 247.152 719.946C248.996 719.514 250.839 719.083 252.683 718.652C254.526 718.181 256.35 717.75 258.155 717.358C259.998 716.966 261.764 716.711 263.45 716.593V702.007C263.45 700.792 262.98 699.87 262.038 699.243C261.136 698.577 259.861 698.243 258.214 698.243C258.214 697.577 258.449 697.008 258.92 696.538C259.39 696.028 260.214 695.773 261.391 695.773C262.411 695.773 263.313 695.95 264.098 696.302C264.921 696.655 265.588 697.087 266.098 697.596C266.608 697.087 267.255 696.655 268.04 696.302C268.863 695.95 269.785 695.773 270.805 695.773C271.982 695.773 272.806 696.028 273.276 696.538C273.747 697.008 273.982 697.577 273.982 698.243C272.374 698.243 271.099 698.577 270.158 699.243C269.217 699.87 268.746 700.792 268.746 702.007V737.472C268.746 738.413 268.922 739.158 269.275 739.707C269.668 740.256 270.119 740.668 270.629 740.942C271.178 741.178 271.747 741.335 272.335 741.413C272.963 741.491 273.512 741.531 273.982 741.531V744.001C273.512 744.001 272.923 743.981 272.217 743.942C271.511 743.864 270.786 743.785 270.04 743.707C269.295 743.628 268.569 743.569 267.863 743.53C267.157 743.452 266.569 743.413 266.098 743.413C265.627 743.413 265.039 743.452 264.333 743.53C263.627 743.569 262.901 743.628 262.156 743.707C261.411 743.785 260.685 743.864 259.979 743.942C259.273 743.981 258.684 744.001 258.214 744.001V741.531C258.724 741.531 259.292 741.491 259.92 741.413C260.548 741.335 261.116 741.178 261.626 740.942C262.136 740.668 262.568 740.256 262.921 739.707C263.274 739.158 263.45 738.413 263.45 737.472V720.063C261.371 720.181 259.41 720.436 257.566 720.828C255.762 721.22 253.977 721.651 252.212 722.122C250.486 722.592 248.76 723.063 247.034 723.533C245.348 723.965 243.622 724.318 241.857 724.592V737.472C241.857 738.413 242.033 739.158 242.386 739.707C242.778 740.256 243.229 740.668 243.739 740.942C244.289 741.178 244.857 741.335 245.446 741.413C246.073 741.491 246.622 741.531 247.093 741.531V744.001C246.622 744.001 246.034 743.981 245.328 743.942C244.622 743.864 243.896 743.785 243.151 743.707C242.406 743.628 241.68 743.569 240.974 743.53C240.268 743.452 239.679 743.413 239.209 743.413C238.738 743.413 238.15 743.452 237.444 743.53C236.738 743.569 236.012 743.628 235.267 743.707C234.521 743.785 233.796 743.864 233.09 743.942C232.383 743.981 231.795 744.001 231.324 744.001V741.531C231.834 741.531 232.403 741.491 233.031 741.413C233.658 741.335 234.227 741.178 234.737 740.942C235.247 740.668 235.678 740.256 236.031 739.707C236.385 739.158 236.561 738.413 236.561 737.472V724.945C234.09 724.906 232.03 724.592 230.383 724.004C228.735 723.377 227.421 722.632 226.441 721.769C225.499 720.906 224.813 720.005 224.381 719.064C223.989 718.123 223.793 717.28 223.793 716.535C223.793 716.103 223.871 715.672 224.028 715.241C224.185 714.77 224.499 714.3 224.97 713.829C224.538 713.398 224.205 712.849 223.97 712.182C223.734 711.476 223.617 710.81 223.617 710.183C223.617 709.438 223.754 708.791 224.028 708.242C224.342 707.654 224.715 707.163 225.146 706.771C225.617 706.379 226.107 706.085 226.617 705.889C227.166 705.693 227.676 705.595 228.147 705.595C229.01 705.595 229.775 705.87 230.442 706.418C231.109 706.967 231.658 707.516 232.089 708.065C229.814 709.79 228.677 712.045 228.677 714.829Z" fill="url(#paint23_radial_168_91)"/>
<path d="M313.699 701.949C313.699 700.733 313.229 699.812 312.287 699.184C311.385 698.518 310.11 698.184 308.463 698.184C308.463 697.518 308.698 696.949 309.169 696.479C309.64 695.969 310.463 695.714 311.64 695.714C312.66 695.714 313.562 695.891 314.347 696.244C315.17 696.596 315.837 697.028 316.347 697.537C316.857 697.028 317.504 696.596 318.289 696.244C319.113 695.891 320.034 695.714 321.054 695.714C322.231 695.714 323.055 695.969 323.526 696.479C323.996 696.949 324.232 697.518 324.232 698.184C322.623 698.184 321.349 698.518 320.407 699.184C319.466 699.812 318.995 700.733 318.995 701.949V725.651C318.995 729.376 318.603 732.473 317.818 734.943C317.073 737.374 315.994 739.335 314.582 740.825C313.209 742.276 311.542 743.315 309.581 743.942C307.62 744.53 305.442 744.824 303.05 744.824C300.578 744.824 298.382 744.53 296.46 743.942C294.538 743.315 292.89 742.276 291.517 740.825C290.184 739.374 289.164 737.472 288.458 735.12C287.752 732.767 287.399 729.846 287.399 726.357V702.007C287.399 700.792 286.928 699.87 285.986 699.243C285.084 698.577 283.809 698.243 282.162 698.243C282.162 697.577 282.397 697.008 282.868 696.538C283.339 696.028 284.162 695.773 285.339 695.773C286.359 695.773 287.261 695.95 288.046 696.302C288.87 696.655 289.536 697.087 290.046 697.596C290.556 697.087 291.204 696.655 291.988 696.302C292.812 695.95 293.734 695.773 294.753 695.773C295.93 695.773 296.754 696.028 297.225 696.538C297.695 697.008 297.931 697.577 297.931 698.243C296.322 698.243 295.048 698.577 294.106 699.243C293.165 699.87 292.694 700.792 292.694 702.007V726.592C292.694 729.454 292.91 731.865 293.341 733.826C293.773 735.747 294.42 737.296 295.283 738.472C296.185 739.649 297.303 740.492 298.637 741.001C299.97 741.511 301.54 741.766 303.344 741.766C305.148 741.766 306.698 741.531 307.992 741.06C309.287 740.55 310.346 739.707 311.169 738.531C312.032 737.355 312.66 735.806 313.052 733.885C313.484 731.924 313.699 729.493 313.699 726.592V701.949Z" fill="url(#paint24_radial_168_91)"/>
<path d="M378.44 737.472C378.44 738.413 378.655 739.158 379.087 739.707C379.518 740.256 380.028 740.668 380.617 740.942C381.244 741.178 381.891 741.335 382.558 741.413C383.225 741.491 383.794 741.531 384.265 741.531V744.001C383.872 744.001 383.264 743.981 382.441 743.942C381.656 743.864 380.832 743.785 379.969 743.707C379.106 743.628 378.263 743.569 377.439 743.53C376.655 743.452 376.066 743.413 375.674 743.413C375.282 743.413 374.693 743.452 373.909 743.53C373.124 743.569 372.301 743.628 371.438 743.707C370.614 743.785 369.81 743.864 369.025 743.942C368.241 743.981 367.652 744.001 367.26 744.001V741.531C367.77 741.531 368.359 741.491 369.025 741.413C369.731 741.335 370.379 741.178 370.967 740.942C371.555 740.668 372.046 740.256 372.438 739.707C372.869 739.158 373.085 738.413 373.085 737.472V706.771L358.258 744.001H355.551L340.9 706.713V737.472C340.9 738.413 341.116 739.158 341.548 739.707C341.979 740.256 342.489 740.668 343.077 740.942C343.705 741.178 344.352 741.335 345.019 741.413C345.686 741.491 346.255 741.531 346.726 741.531V744.001C346.333 744.001 345.804 743.981 345.137 743.942C344.47 743.864 343.764 743.785 343.019 743.707C342.273 743.628 341.567 743.569 340.9 743.53C340.234 743.452 339.704 743.413 339.312 743.413C338.92 743.413 338.39 743.452 337.723 743.53C337.056 743.569 336.35 743.628 335.605 743.707C334.86 743.785 334.154 743.864 333.487 743.942C332.82 743.981 332.29 744.001 331.898 744.001V741.531C332.408 741.531 332.996 741.491 333.663 741.413C334.369 741.335 335.017 741.178 335.605 740.942C336.193 740.668 336.684 740.256 337.076 739.707C337.507 739.158 337.723 738.413 337.723 737.472V702.007C337.723 700.792 337.252 699.87 336.311 699.243C335.409 698.577 334.134 698.243 332.487 698.243C332.487 697.577 332.722 697.008 333.193 696.538C333.663 696.028 334.546 695.773 335.84 695.773C336.743 695.773 337.586 695.95 338.37 696.302C339.194 696.655 339.861 697.087 340.371 697.596C340.881 697.087 341.528 696.655 342.313 696.302C343.136 695.95 343.999 695.773 344.901 695.773C346.196 695.773 347.079 696.028 347.549 696.538C348.02 697.008 348.255 697.577 348.255 698.243C346.098 698.243 344.548 698.831 343.607 700.008C343.999 700.4 344.392 700.91 344.784 701.537C345.176 702.125 345.549 702.752 345.902 703.419C346.255 704.085 346.569 704.772 346.843 705.477C347.118 706.144 347.353 706.732 347.549 707.242L358.434 735.59L369.673 705.948C370.143 704.693 370.614 703.595 371.085 702.654C371.595 701.674 372.105 700.811 372.615 700.067C371.752 698.851 370.183 698.243 367.907 698.243C367.907 697.577 368.143 697.008 368.613 696.538C369.084 696.028 369.967 695.773 371.261 695.773C372.163 695.773 373.007 695.95 373.791 696.302C374.615 696.655 375.282 697.087 375.792 697.596C376.302 697.087 376.949 696.655 377.734 696.302C378.557 695.95 379.42 695.773 380.322 695.773C381.617 695.773 382.499 696.028 382.97 696.538C383.441 697.008 383.676 697.577 383.676 698.243C382.068 698.243 380.793 698.577 379.852 699.243C378.91 699.87 378.44 700.792 378.44 702.007V737.472Z" fill="url(#paint25_radial_168_91)"/>
<path d="M418.672 723.181C417.534 719.024 416.593 715.593 415.848 712.888C415.142 710.183 414.573 708.006 414.141 706.36C413.71 704.713 413.376 703.497 413.141 702.713C412.945 701.929 412.788 701.38 412.67 701.066L405.551 725.18C406.218 725.259 406.845 725.317 407.434 725.357C408.022 725.396 408.571 725.415 409.081 725.415C410.336 725.415 411.749 725.278 413.318 725.004C414.887 724.729 416.671 724.122 418.672 723.181ZM428.91 738.178C429.224 739.315 429.989 740.158 431.205 740.707C432.421 741.256 433.911 741.531 435.676 741.531V744.001C435.206 744.001 434.617 743.981 433.911 743.942C433.244 743.864 432.499 743.785 431.675 743.707C430.891 743.628 430.067 743.569 429.204 743.53C428.38 743.452 427.596 743.413 426.85 743.413C426.066 743.413 425.203 743.452 424.262 743.53C423.32 743.569 422.379 743.628 421.437 743.707C420.535 743.785 419.672 743.864 418.848 743.942C418.064 743.981 417.436 744.001 416.966 744.001V741.531C417.554 741.531 418.182 741.511 418.848 741.472C419.515 741.433 420.123 741.335 420.672 741.178C421.261 740.982 421.732 740.727 422.085 740.413C422.477 740.06 422.673 739.59 422.673 739.002C422.673 738.845 422.634 738.609 422.555 738.296C422.516 737.982 422.379 737.394 422.143 736.531C421.908 735.669 421.575 734.453 421.143 732.885C420.751 731.277 420.202 729.121 419.496 726.415C417.142 727.239 415.063 727.788 413.259 728.062C411.494 728.337 409.866 728.474 408.375 728.474C407.826 728.474 407.238 728.454 406.61 728.415C405.982 728.376 405.335 728.317 404.668 728.239L402.55 735.884C402.354 736.512 402.197 737.061 402.079 737.531C401.962 737.963 401.922 738.335 401.962 738.649C401.962 739.354 402.138 739.903 402.491 740.296C402.884 740.648 403.374 740.923 403.962 741.119C404.551 741.315 405.198 741.433 405.904 741.472C406.649 741.511 407.375 741.531 408.081 741.531V744.001C407.61 744.001 407.022 743.981 406.316 743.942C405.61 743.864 404.825 743.785 403.962 743.707C403.138 743.628 402.295 743.569 401.432 743.53C400.569 743.452 399.765 743.413 399.02 743.413C397.529 743.413 396.058 743.511 394.607 743.707C393.195 743.903 392.038 744.001 391.135 744.001V741.531C392.901 741.531 394.332 741.256 395.431 740.707C396.568 740.158 397.313 739.315 397.666 738.178L401.02 727.533C398.784 726.866 396.882 725.827 395.313 724.416C393.783 722.965 393.018 721.083 393.018 718.769C393.018 718.142 393.077 717.691 393.195 717.417C393.352 717.142 393.567 716.887 393.842 716.652C393.214 715.907 392.901 714.986 392.901 713.888C392.901 713.221 393.018 712.574 393.254 711.947C393.528 711.28 393.881 710.712 394.313 710.241C394.783 709.732 395.333 709.34 395.96 709.065C396.588 708.751 397.294 708.595 398.078 708.595C398.471 708.595 398.824 708.653 399.137 708.771C399.49 708.849 399.804 708.987 400.079 709.183C400.393 709.34 400.706 709.575 401.02 709.888C401.373 710.163 401.766 710.477 402.197 710.83C400.706 711.457 399.628 712.398 398.961 713.653C398.294 714.907 397.961 716.221 397.961 717.593C397.961 719.475 398.353 720.946 399.137 722.004C399.922 723.063 400.883 723.847 402.021 724.357L410.846 697.773C412.847 697.773 414.887 697.557 416.966 697.126C419.045 696.694 421.025 696.244 422.908 695.773L424.085 697.832C423.261 697.988 422.575 698.165 422.026 698.361C421.516 698.518 421.104 698.733 420.79 699.008C420.516 699.243 420.319 699.557 420.202 699.949C420.123 700.302 420.084 700.753 420.084 701.302C420.084 701.694 420.104 702.184 420.143 702.772C420.221 703.36 420.359 704.203 420.555 705.301C420.79 706.36 421.104 707.732 421.496 709.418C421.888 711.104 422.398 713.261 423.026 715.888C423.693 718.475 424.497 721.593 425.438 725.239C426.419 728.886 427.576 733.199 428.91 738.178Z" fill="url(#paint26_radial_168_91)"/>
<path d="M476.858 744.53L454.028 712.006C453.44 711.182 452.852 710.398 452.263 709.653C451.714 708.869 451.165 708.124 450.616 707.418V737.472C450.616 738.413 450.832 739.158 451.263 739.707C451.695 740.256 452.204 740.668 452.793 740.942C453.42 741.178 454.068 741.335 454.735 741.413C455.401 741.491 455.97 741.531 456.441 741.531V744.001C456.049 744.001 455.519 743.981 454.852 743.942C454.185 743.864 453.479 743.785 452.734 743.707C451.989 743.628 451.283 743.569 450.616 743.53C449.949 743.452 449.419 743.413 449.027 743.413C448.635 743.413 448.105 743.452 447.439 743.53C446.772 743.569 446.066 743.628 445.32 743.707C444.575 743.785 443.869 743.864 443.202 743.942C442.535 743.981 442.006 744.001 441.613 744.001V741.531C442.123 741.531 442.712 741.491 443.379 741.413C444.085 741.335 444.732 741.178 445.32 740.942C445.909 740.668 446.399 740.256 446.791 739.707C447.223 739.158 447.439 738.413 447.439 737.472V703.772C446.066 702.4 444.653 701.321 443.202 700.537C441.751 699.714 440.221 699.302 438.613 699.302C438.613 698.4 438.966 697.596 439.672 696.891C440.378 696.146 441.476 695.773 442.967 695.773C444.3 695.773 445.438 696.106 446.379 696.773C447.36 697.4 447.85 698.302 447.85 699.478C448.556 699.478 449.243 699.557 449.91 699.714C450.577 699.831 451.342 700.223 452.204 700.89C453.067 701.517 454.068 702.517 455.205 703.889C456.382 705.262 457.814 707.163 459.5 709.594L475.74 733.12V702.007C475.74 700.792 475.269 699.87 474.328 699.243C473.426 698.577 472.151 698.243 470.503 698.243C470.503 697.577 470.739 697.008 471.209 696.538C471.68 696.028 472.484 695.773 473.622 695.773C475.112 695.773 476.348 696.381 477.329 697.596C478.309 696.381 479.545 695.773 481.035 695.773C482.173 695.773 482.977 696.028 483.448 696.538C483.919 697.008 484.154 697.577 484.154 698.243C482.546 698.243 481.271 698.577 480.329 699.243C479.388 699.87 478.917 700.792 478.917 702.007V744.001L476.858 744.53Z" fill="url(#paint27_radial_168_91)"/>
<path d="M527.408 722.945V720.946C529.33 720.75 531.076 720.436 532.645 720.005C534.253 719.534 535.626 718.867 536.763 718.005C537.901 717.142 538.784 716.025 539.411 714.652C540.039 713.28 540.353 711.575 540.353 709.536C540.353 705.732 539.215 702.988 536.94 701.302C534.704 699.576 531.429 698.714 527.114 698.714C523.937 698.714 521.328 699.125 519.288 699.949C517.249 700.733 515.621 701.831 514.405 703.242C513.189 704.654 512.345 706.301 511.875 708.183C511.404 710.026 511.169 712.006 511.169 714.123C509.325 714.123 508.011 713.77 507.226 713.064C506.442 712.359 506.05 711.398 506.05 710.183C506.05 709.045 506.324 708.124 506.873 707.418C507.462 706.713 508.129 706.36 508.874 706.36C508.56 706.046 508.364 705.634 508.286 705.125C508.207 704.576 508.168 704.144 508.168 703.831C508.168 702.497 508.678 701.341 509.698 700.361C510.757 699.341 512.149 698.498 513.875 697.832C515.601 697.126 517.582 696.616 519.818 696.302C522.054 695.95 524.388 695.773 526.82 695.773C527.565 695.773 528.565 695.812 529.821 695.891C531.076 695.969 532.409 696.146 533.822 696.42C535.234 696.695 536.665 697.126 538.117 697.714C539.568 698.263 540.882 699.047 542.059 700.067C543.236 701.086 544.197 702.36 544.942 703.889C545.687 705.419 546.06 707.261 546.06 709.418C546.06 712.712 545.06 715.476 543.059 717.711C541.098 719.946 537.901 721.534 533.469 722.475L544.883 736.825C546.256 738.59 547.609 739.825 548.943 740.531C550.277 741.197 551.748 741.531 553.356 741.531V744.001C552.218 744.04 551.14 744.06 550.12 744.06C549.139 744.099 548.394 744.118 547.884 744.118C546.903 744.118 546.08 744.06 545.413 743.942C544.785 743.785 544.197 743.55 543.648 743.236C543.138 742.883 542.608 742.413 542.059 741.825C541.549 741.197 540.941 740.413 540.235 739.472L527.408 722.945ZM525.113 737.472C525.113 738.413 525.29 739.158 525.643 739.707C526.035 740.256 526.486 740.668 526.996 740.942C527.545 741.178 528.114 741.335 528.703 741.413C529.33 741.491 529.879 741.531 530.35 741.531V744.001C529.879 744.001 529.291 743.981 528.585 743.942C527.879 743.864 527.153 743.785 526.408 743.707C525.663 743.628 524.937 743.569 524.231 743.53C523.525 743.452 522.936 743.413 522.466 743.413C521.995 743.413 521.407 743.452 520.701 743.53C519.994 743.569 519.269 743.628 518.524 743.707C517.778 743.785 517.053 743.864 516.346 743.942C515.64 743.981 515.052 744.001 514.581 744.001V741.531C515.091 741.531 515.66 741.491 516.288 741.413C516.915 741.335 517.484 741.178 517.994 740.942C518.504 740.668 518.935 740.256 519.288 739.707C519.641 739.158 519.818 738.413 519.818 737.472V714.182C519.818 712.731 519.779 711.535 519.7 710.594C519.661 709.614 519.504 708.869 519.23 708.359C518.955 707.81 518.563 707.438 518.053 707.242C517.543 707.007 516.837 706.889 515.935 706.889V704.83C516.915 704.83 517.759 704.772 518.465 704.654C519.21 704.536 519.877 704.36 520.465 704.125C521.054 703.889 521.583 703.615 522.054 703.301C522.564 702.988 523.093 702.654 523.642 702.301H525.113V737.472Z" fill="url(#paint28_radial_168_91)"/>
<path d="M569.594 697.008C571.163 697.008 572.83 696.989 574.595 696.949C576.399 696.871 578.086 696.793 579.655 696.714C581.224 696.636 582.558 696.577 583.656 696.538C584.794 696.459 585.5 696.42 585.774 696.42C586.716 696.42 587.186 696.93 587.186 697.949C587.186 698.38 587.128 699.282 587.01 700.655C586.892 701.988 586.833 703.615 586.833 705.536H584.48C584.48 704.713 584.421 703.948 584.303 703.242C584.225 702.498 584.029 701.851 583.715 701.302C583.44 700.753 583.029 700.321 582.479 700.008C581.93 699.655 581.185 699.478 580.243 699.478H569.594V718.122C570.888 718.319 572.183 718.475 573.477 718.593C574.811 718.671 576.144 718.711 577.478 718.711C578.851 718.711 580.224 718.573 581.597 718.299C582.97 717.985 584.146 717.397 585.127 716.535C585.323 716.731 585.5 717.005 585.657 717.358C585.853 717.711 585.951 718.103 585.951 718.534C585.951 719.554 585.382 720.416 584.244 721.122C583.107 721.789 581.322 722.122 578.89 722.122C577.282 722.122 575.713 722.004 574.183 721.769C572.653 721.534 571.123 721.22 569.594 720.828V737.472C569.594 739.041 569.927 740.374 570.594 741.472C571.3 742.53 572.143 743.393 573.124 744.06C574.105 744.765 575.144 745.256 576.242 745.53C577.341 745.844 578.302 746 579.126 746C580.263 746 581.185 745.844 581.891 745.53C582.636 745.256 583.225 744.883 583.656 744.412C584.088 743.942 584.382 743.413 584.539 742.825C584.735 742.197 584.833 741.55 584.833 740.884C584.833 739.864 584.656 739.041 584.303 738.413C583.99 737.747 583.48 737.139 582.774 736.59V736.355C583.48 736.237 584.107 736.178 584.656 736.178C585.519 736.178 586.206 736.335 586.716 736.649C587.265 736.923 587.677 737.296 587.951 737.766C588.265 738.237 588.461 738.766 588.54 739.354C588.657 739.943 588.716 740.531 588.716 741.119C589.187 741.119 589.56 741.354 589.834 741.825C590.109 742.256 590.246 742.864 590.246 743.648C590.246 744.354 590.089 745.02 589.775 745.648C589.462 746.314 588.952 746.883 588.246 747.353C587.579 747.863 586.676 748.255 585.539 748.529C584.441 748.843 583.087 749 581.479 749C579.126 749 577.027 748.706 575.183 748.118C573.379 747.53 571.692 746.883 570.123 746.177C568.554 745.51 567.024 744.883 565.534 744.295C564.082 743.707 562.533 743.413 560.886 743.413H559.062V740.942C559.571 740.942 560.14 740.923 560.768 740.884C561.395 740.805 561.964 740.609 562.474 740.296C562.984 739.982 563.416 739.492 563.769 738.825C564.122 738.119 564.298 737.139 564.298 735.884V702.948C564.298 702.007 564.122 701.262 563.769 700.713C563.416 700.165 562.984 699.772 562.474 699.537C561.964 699.263 561.395 699.086 560.768 699.008C560.14 698.929 559.571 698.89 559.062 698.89V696.42C559.532 696.42 560.258 696.459 561.239 696.538C562.219 696.577 563.239 696.636 564.298 696.714C565.396 696.793 566.436 696.871 567.417 696.949C568.397 696.989 569.123 697.008 569.594 697.008Z" fill="url(#paint29_radial_168_91)"/>
<path d="M628.992 704.713C628.992 705.889 628.796 706.928 628.404 707.83C628.012 708.693 627.482 709.418 626.815 710.006C626.188 710.594 625.442 711.045 624.579 711.359C623.756 711.633 622.893 711.771 621.99 711.771L621.755 711.241C622.03 711.045 622.363 710.575 622.755 709.83C623.187 709.085 623.403 707.928 623.403 706.36C623.403 703.85 622.716 701.968 621.343 700.713C619.97 699.459 617.813 698.831 614.871 698.831C614.243 698.831 613.361 698.89 612.223 699.008C611.125 699.125 610.007 699.439 608.869 699.949C607.771 700.459 606.81 701.223 605.986 702.243C605.163 703.223 604.751 704.615 604.751 706.418C604.751 708.065 605.104 709.457 605.81 710.594C606.555 711.731 607.516 712.731 608.693 713.594C609.87 714.456 611.203 715.221 612.694 715.888C614.224 716.554 615.773 717.221 617.342 717.887C618.95 718.554 620.5 719.279 621.99 720.063C623.52 720.808 624.874 721.71 626.05 722.769C627.227 723.827 628.169 725.102 628.875 726.592C629.62 728.043 629.992 729.787 629.992 731.826C629.992 734.022 629.581 735.943 628.757 737.59C627.933 739.198 626.776 740.55 625.285 741.648C623.834 742.707 622.069 743.491 619.99 744.001C617.95 744.55 615.695 744.824 613.223 744.824C612.792 744.824 612.164 744.805 611.341 744.765C610.517 744.726 609.693 744.628 608.869 744.471C608.046 744.354 607.32 744.158 606.692 743.883C606.104 743.609 605.81 743.217 605.81 742.707C604.672 742.707 603.652 742.511 602.75 742.119C601.848 741.687 601.063 741.119 600.397 740.413C599.73 739.707 599.22 738.884 598.867 737.943C598.514 736.963 598.337 735.904 598.337 734.767C598.337 733.473 598.553 732.395 598.985 731.532C599.416 730.63 599.965 729.905 600.632 729.356C601.299 728.768 602.044 728.337 602.868 728.062C603.692 727.788 604.496 727.611 605.28 727.533L605.516 727.827C605.28 728.141 605.084 728.513 604.927 728.944C604.81 729.376 604.711 729.807 604.633 730.238C604.555 730.67 604.496 731.101 604.457 731.532C604.457 731.924 604.457 732.258 604.457 732.532C604.457 734.375 604.731 735.904 605.28 737.12C605.869 738.296 606.594 739.237 607.457 739.943C608.32 740.648 609.262 741.158 610.282 741.472C611.341 741.746 612.341 741.883 613.282 741.883C613.91 741.883 614.812 741.805 615.989 741.648C617.205 741.452 618.401 741.06 619.578 740.472C620.755 739.884 621.775 739.041 622.638 737.943C623.54 736.806 623.991 735.296 623.991 733.414C623.991 731.218 623.383 729.454 622.167 728.121C620.99 726.749 619.5 725.592 617.695 724.651C615.891 723.671 613.93 722.788 611.811 722.004C609.693 721.181 607.732 720.201 605.927 719.064C604.123 717.926 602.613 716.515 601.397 714.829C600.22 713.143 599.632 710.947 599.632 708.242C599.632 705.615 600.181 703.478 601.279 701.831C602.417 700.184 603.809 698.929 605.457 698.067C607.104 697.165 608.85 696.557 610.693 696.244C612.576 695.93 614.283 695.773 615.812 695.773C619.696 695.773 621.637 696.557 621.637 698.126C622.461 698.126 623.305 698.224 624.167 698.42C625.07 698.616 625.874 698.969 626.58 699.478C627.286 699.949 627.855 700.615 628.286 701.478C628.757 702.301 628.992 703.38 628.992 704.713Z" fill="url(#paint30_radial_168_91)"/>
<path d="M661.444 744.824C659.718 744.824 657.953 744.707 656.148 744.471C654.383 744.275 652.775 743.903 651.323 743.354C649.872 742.766 648.676 741.981 647.734 741.001C646.832 739.982 646.381 738.688 646.381 737.12C645.047 737.12 643.969 736.61 643.145 735.59C642.36 734.571 641.733 733.238 641.262 731.591C640.83 729.905 640.536 728.023 640.379 725.945C640.262 723.867 640.203 721.769 640.203 719.652C640.203 716.084 640.674 712.829 641.615 709.888C642.596 706.948 644.027 704.438 645.91 702.36C647.832 700.243 650.186 698.616 652.971 697.479C655.756 696.342 658.972 695.773 662.62 695.773C663.483 695.773 664.601 695.832 665.974 695.95C667.347 696.067 668.681 696.342 669.975 696.773C671.309 697.165 672.447 697.753 673.388 698.537C674.329 699.322 674.8 700.4 674.8 701.772C676.251 701.772 677.448 702.341 678.389 703.478C679.37 704.576 680.154 705.987 680.743 707.712C681.331 709.398 681.743 711.241 681.978 713.241C682.214 715.241 682.331 717.142 682.331 718.946C682.331 723.141 681.782 726.847 680.684 730.062C679.625 733.277 678.154 735.982 676.271 738.178C674.388 740.374 672.172 742.04 669.622 743.177C667.073 744.275 664.346 744.824 661.444 744.824ZM661.326 741.942C663.915 741.942 666.151 741.354 668.034 740.178C669.916 738.962 671.446 737.355 672.623 735.355C673.839 733.316 674.722 730.964 675.271 728.297C675.859 725.631 676.153 722.828 676.153 719.887C676.153 716.946 675.859 714.202 675.271 711.653C674.722 709.104 673.839 706.889 672.623 705.007C671.407 703.086 669.858 701.576 667.975 700.478C666.131 699.38 663.895 698.831 661.267 698.831C658.678 698.831 656.442 699.38 654.56 700.478C652.677 701.537 651.127 703.007 649.911 704.889C648.695 706.771 647.793 709.006 647.205 711.594C646.656 714.143 646.381 716.887 646.381 719.828C646.381 722.769 646.656 725.592 647.205 728.297C647.793 730.964 648.695 733.316 649.911 735.355C651.127 737.355 652.677 738.962 654.56 740.178C656.442 741.354 658.698 741.942 661.326 741.942Z" fill="url(#paint31_radial_168_91)"/>
<path d="M722.293 701.949C722.293 700.733 721.822 699.812 720.881 699.184C719.979 698.518 718.704 698.184 717.056 698.184C717.056 697.518 717.292 696.949 717.762 696.479C718.233 695.969 719.057 695.714 720.234 695.714C721.254 695.714 722.156 695.891 722.94 696.244C723.764 696.596 724.431 697.028 724.941 697.537C725.451 697.028 726.098 696.596 726.882 696.244C727.706 695.891 728.628 695.714 729.648 695.714C730.825 695.714 731.648 695.969 732.119 696.479C732.59 696.949 732.825 697.518 732.825 698.184C731.217 698.184 729.942 698.518 729.001 699.184C728.059 699.812 727.588 700.733 727.588 701.949V725.651C727.588 729.376 727.196 732.473 726.412 734.943C725.666 737.374 724.588 739.335 723.176 740.825C721.803 742.276 720.136 743.315 718.174 743.942C716.213 744.53 714.036 744.824 711.643 744.824C709.172 744.824 706.975 744.53 705.053 743.942C703.131 743.315 701.484 742.276 700.111 740.825C698.777 739.374 697.757 737.472 697.051 735.12C696.345 732.767 695.992 729.846 695.992 726.357V702.007C695.992 700.792 695.521 699.87 694.58 699.243C693.678 698.577 692.403 698.243 690.755 698.243C690.755 697.577 690.991 697.008 691.462 696.538C691.932 696.028 692.756 695.773 693.933 695.773C694.953 695.773 695.855 695.95 696.639 696.302C697.463 696.655 698.13 697.087 698.64 697.596C699.15 697.087 699.797 696.655 700.581 696.302C701.405 695.95 702.327 695.773 703.347 695.773C704.524 695.773 705.347 696.028 705.818 696.538C706.289 697.008 706.524 697.577 706.524 698.243C704.916 698.243 703.641 698.577 702.7 699.243C701.758 699.87 701.288 700.792 701.288 702.007V726.592C701.288 729.454 701.503 731.865 701.935 733.826C702.366 735.747 703.014 737.296 703.876 738.472C704.779 739.649 705.897 740.492 707.23 741.001C708.564 741.511 710.133 741.766 711.937 741.766C713.742 741.766 715.291 741.531 716.586 741.06C717.88 740.55 718.939 739.707 719.763 738.531C720.626 737.355 721.253 735.806 721.646 733.885C722.077 731.924 722.293 729.493 722.293 726.592V701.949Z" fill="url(#paint32_radial_168_91)"/>
<path d="M759.614 722.945V720.946C761.536 720.75 763.282 720.436 764.851 720.005C766.459 719.534 767.832 718.867 768.97 718.005C770.107 717.142 770.99 716.025 771.617 714.652C772.245 713.28 772.559 711.575 772.559 709.536C772.559 705.732 771.421 702.988 769.146 701.302C766.91 699.576 763.635 698.714 759.32 698.714C756.143 698.714 753.534 699.125 751.494 699.949C749.455 700.733 747.827 701.831 746.611 703.242C745.395 704.654 744.551 706.301 744.081 708.183C743.61 710.026 743.375 712.006 743.375 714.123C741.531 714.123 740.217 713.77 739.432 713.064C738.648 712.359 738.256 711.398 738.256 710.183C738.256 709.045 738.53 708.124 739.079 707.418C739.668 706.713 740.335 706.36 741.08 706.36C740.766 706.046 740.57 705.634 740.492 705.125C740.413 704.576 740.374 704.144 740.374 703.831C740.374 702.497 740.884 701.341 741.904 700.361C742.963 699.341 744.355 698.498 746.081 697.832C747.807 697.126 749.788 696.616 752.024 696.302C754.26 695.95 756.594 695.773 759.026 695.773C759.771 695.773 760.771 695.812 762.027 695.891C763.282 695.969 764.615 696.146 766.028 696.42C767.44 696.695 768.872 697.126 770.323 697.714C771.774 698.263 773.088 699.047 774.265 700.067C775.442 701.086 776.403 702.36 777.148 703.889C777.893 705.419 778.266 707.261 778.266 709.418C778.266 712.712 777.266 715.476 775.265 717.711C773.304 719.946 770.107 721.534 765.675 722.475L777.089 736.825C778.462 738.59 779.815 739.825 781.149 740.531C782.483 741.197 783.954 741.531 785.562 741.531V744.001C784.425 744.04 783.346 744.06 782.326 744.06C781.345 744.099 780.6 744.118 780.09 744.118C779.109 744.118 778.286 744.06 777.619 743.942C776.991 743.785 776.403 743.55 775.854 743.236C775.344 742.883 774.814 742.413 774.265 741.825C773.755 741.197 773.147 740.413 772.441 739.472L759.614 722.945ZM757.319 737.472C757.319 738.413 757.496 739.158 757.849 739.707C758.241 740.256 758.692 740.668 759.202 740.942C759.752 741.178 760.32 741.335 760.909 741.413C761.536 741.491 762.085 741.531 762.556 741.531V744.001C762.085 744.001 761.497 743.981 760.791 743.942C760.085 743.864 759.359 743.785 758.614 743.707C757.869 743.628 757.143 743.569 756.437 743.53C755.731 743.452 755.142 743.413 754.672 743.413C754.201 743.413 753.613 743.452 752.907 743.53C752.2 743.569 751.475 743.628 750.73 743.707C749.984 743.785 749.259 743.864 748.553 743.942C747.846 743.981 747.258 744.001 746.787 744.001V741.531C747.297 741.531 747.866 741.491 748.494 741.413C749.121 741.335 749.69 741.178 750.2 740.942C750.71 740.668 751.141 740.256 751.494 739.707C751.847 739.158 752.024 738.413 752.024 737.472V714.182C752.024 712.731 751.985 711.535 751.906 710.594C751.867 709.614 751.71 708.869 751.436 708.359C751.161 707.81 750.769 707.438 750.259 707.242C749.749 707.007 749.043 706.889 748.141 706.889V704.83C749.121 704.83 749.965 704.772 750.671 704.654C751.416 704.536 752.083 704.36 752.671 704.125C753.26 703.889 753.789 703.615 754.26 703.301C754.77 702.988 755.299 702.654 755.848 702.301H757.319V737.472Z" fill="url(#paint33_radial_168_91)"/>
<path d="M812.764 695.773C813.431 695.773 814.275 695.793 815.294 695.832C816.354 695.871 817.354 695.989 818.295 696.185C819.276 696.381 820.119 696.694 820.825 697.126C821.531 697.557 821.884 698.184 821.884 699.008C822.747 699.008 823.571 699.125 824.356 699.361C825.14 699.596 825.827 699.988 826.415 700.537C827.043 701.086 827.533 701.811 827.886 702.713C828.278 703.615 828.474 704.732 828.474 706.066C828.474 708.575 827.827 710.437 826.533 711.653C825.277 712.868 823.669 713.476 821.708 713.476C821.276 713.476 820.786 713.457 820.237 713.417C819.688 713.339 819.197 713.261 818.766 713.182V712.77C819.668 712.457 820.394 711.888 820.943 711.065C821.531 710.202 821.826 708.947 821.826 707.301C821.826 704.556 820.982 702.439 819.295 700.949C817.648 699.459 815.471 698.714 812.764 698.714C810.568 698.714 808.508 699.223 806.586 700.243C804.664 701.262 802.978 702.733 801.526 704.654C800.075 706.575 798.918 708.928 798.055 711.712C797.231 714.496 796.819 717.672 796.819 721.24C796.819 724.651 797.211 727.65 797.996 730.238C798.78 732.787 799.859 734.924 801.232 736.649C802.605 738.374 804.233 739.688 806.116 740.59C808.038 741.452 810.117 741.883 812.353 741.883C814.314 741.883 815.942 741.57 817.236 740.942C818.531 740.276 819.55 739.394 820.296 738.296C821.08 737.159 821.629 735.845 821.943 734.355C822.257 732.826 822.453 731.199 822.532 729.474C823.042 729.474 823.61 729.552 824.238 729.709C824.905 729.866 825.513 730.14 826.062 730.532C826.611 730.924 827.082 731.454 827.474 732.12C827.866 732.748 828.062 733.551 828.062 734.532C828.062 735.081 827.984 735.649 827.827 736.237C827.709 736.825 827.474 737.355 827.121 737.825C826.768 738.296 826.297 738.688 825.709 739.002C825.16 739.276 824.473 739.413 823.65 739.413C823.65 740.433 823.296 741.295 822.59 742.001C821.884 742.668 820.963 743.217 819.825 743.648C818.687 744.04 817.413 744.334 816.001 744.53C814.628 744.726 813.255 744.824 811.882 744.824C808.901 744.824 806.135 744.393 803.586 743.53C801.036 742.628 798.82 741.237 796.937 739.354C795.054 737.472 793.583 735.041 792.524 732.061C791.465 729.042 790.935 725.415 790.935 721.181C790.935 716.829 791.484 713.064 792.583 709.888C793.72 706.673 795.27 704.027 797.231 701.949C799.231 699.87 801.546 698.322 804.174 697.302C806.841 696.283 809.705 695.773 812.764 695.773Z" fill="url(#paint34_radial_168_91)"/>
<path d="M847.276 697.008C848.845 697.008 850.512 696.989 852.277 696.949C854.081 696.871 855.768 696.793 857.337 696.714C858.906 696.636 860.24 696.577 861.338 696.538C862.476 696.459 863.182 696.42 863.456 696.42C864.398 696.42 864.868 696.93 864.868 697.949C864.868 698.38 864.81 699.282 864.692 700.655C864.574 701.988 864.515 703.615 864.515 705.536H862.162C862.162 704.713 862.103 703.948 861.985 703.242C861.907 702.498 861.711 701.851 861.397 701.302C861.122 700.753 860.71 700.321 860.161 700.008C859.612 699.655 858.867 699.478 857.925 699.478H847.276V718.122C848.57 718.319 849.864 718.475 851.159 718.593C852.493 718.671 853.826 718.711 855.16 718.711C856.533 718.711 857.906 718.573 859.279 718.299C860.652 717.985 861.828 717.397 862.809 716.535C863.005 716.731 863.182 717.005 863.339 717.358C863.535 717.711 863.633 718.103 863.633 718.534C863.633 719.554 863.064 720.416 861.926 721.122C860.789 721.789 859.004 722.122 856.572 722.122C854.964 722.122 853.395 722.004 851.865 721.769C850.335 721.534 848.805 721.22 847.276 720.828V737.472C847.276 739.041 847.609 740.374 848.276 741.472C848.982 742.53 849.825 743.393 850.806 744.06C851.787 744.765 852.826 745.256 853.924 745.53C855.023 745.844 855.984 746 856.807 746C857.945 746 858.867 745.844 859.573 745.53C860.318 745.256 860.907 744.883 861.338 744.412C861.77 743.942 862.064 743.413 862.221 742.825C862.417 742.197 862.515 741.55 862.515 740.884C862.515 739.864 862.338 739.041 861.985 738.413C861.672 737.747 861.162 737.139 860.455 736.59V736.355C861.162 736.237 861.789 736.178 862.338 736.178C863.201 736.178 863.888 736.335 864.398 736.649C864.947 736.923 865.359 737.296 865.633 737.766C865.947 738.237 866.143 738.766 866.222 739.354C866.339 739.943 866.398 740.531 866.398 741.119C866.869 741.119 867.242 741.354 867.516 741.825C867.791 742.256 867.928 742.864 867.928 743.648C867.928 744.354 867.771 745.02 867.457 745.648C867.143 746.314 866.634 746.883 865.928 747.353C865.261 747.863 864.358 748.255 863.221 748.529C862.123 748.843 860.769 749 859.161 749C856.807 749 854.709 748.706 852.865 748.118C851.061 747.53 849.374 746.883 847.805 746.177C846.236 745.51 844.706 744.883 843.216 744.295C841.764 743.707 840.215 743.413 838.567 743.413H836.743V740.942C837.253 740.942 837.822 740.923 838.45 740.884C839.077 740.805 839.646 740.609 840.156 740.296C840.666 739.982 841.098 739.492 841.451 738.825C841.804 738.119 841.98 737.139 841.98 735.884V702.948C841.98 702.007 841.804 701.262 841.451 700.713C841.098 700.165 840.666 699.772 840.156 699.537C839.646 699.263 839.077 699.086 838.45 699.008C837.822 698.929 837.253 698.89 836.743 698.89V696.42C837.214 696.42 837.94 696.459 838.921 696.538C839.901 696.577 840.921 696.636 841.98 696.714C843.078 696.793 844.118 696.871 845.099 696.949C846.079 696.989 846.805 697.008 847.276 697.008Z" fill="url(#paint35_radial_168_91)"/>
<path d="M906.674 704.713C906.674 705.889 906.478 706.928 906.086 707.83C905.694 708.693 905.164 709.418 904.497 710.006C903.87 710.594 903.124 711.045 902.261 711.359C901.438 711.633 900.575 711.771 899.672 711.771L899.437 711.241C899.712 711.045 900.045 710.575 900.437 709.83C900.869 709.085 901.085 707.928 901.085 706.36C901.085 703.85 900.398 701.968 899.025 700.713C897.652 699.459 895.495 698.831 892.553 698.831C891.925 698.831 891.043 698.89 889.905 699.008C888.807 699.125 887.689 699.439 886.551 699.949C885.453 700.459 884.492 701.223 883.668 702.243C882.845 703.223 882.433 704.615 882.433 706.418C882.433 708.065 882.786 709.457 883.492 710.594C884.237 711.731 885.198 712.731 886.375 713.594C887.552 714.456 888.885 715.221 890.376 715.888C891.906 716.554 893.455 717.221 895.024 717.887C896.632 718.554 898.182 719.279 899.672 720.063C901.202 720.808 902.556 721.71 903.732 722.769C904.909 723.827 905.85 725.102 906.557 726.592C907.302 728.043 907.674 729.787 907.674 731.826C907.674 734.022 907.263 735.943 906.439 737.59C905.615 739.198 904.458 740.55 902.967 741.648C901.516 742.707 899.751 743.491 897.672 744.001C895.632 744.55 893.377 744.824 890.905 744.824C890.474 744.824 889.846 744.805 889.023 744.765C888.199 744.726 887.375 744.628 886.551 744.471C885.728 744.354 885.002 744.158 884.374 743.883C883.786 743.609 883.492 743.217 883.492 742.707C882.354 742.707 881.334 742.511 880.432 742.119C879.53 741.687 878.745 741.119 878.079 740.413C877.412 739.707 876.902 738.884 876.549 737.943C876.196 736.963 876.019 735.904 876.019 734.767C876.019 733.473 876.235 732.395 876.666 731.532C877.098 730.63 877.647 729.905 878.314 729.356C878.981 728.768 879.726 728.337 880.55 728.062C881.374 727.788 882.178 727.611 882.962 727.533L883.198 727.827C882.962 728.141 882.766 728.513 882.609 728.944C882.492 729.376 882.393 729.807 882.315 730.238C882.237 730.67 882.178 731.101 882.138 731.532C882.138 731.924 882.138 732.258 882.138 732.532C882.138 734.375 882.413 735.904 882.962 737.12C883.551 738.296 884.276 739.237 885.139 739.943C886.002 740.648 886.944 741.158 887.963 741.472C889.023 741.746 890.023 741.883 890.964 741.883C891.592 741.883 892.494 741.805 893.671 741.648C894.887 741.452 896.083 741.06 897.26 740.472C898.437 739.884 899.457 739.041 900.32 737.943C901.222 736.806 901.673 735.296 901.673 733.414C901.673 731.218 901.065 729.454 899.849 728.121C898.672 726.749 897.182 725.592 895.377 724.651C893.573 723.671 891.612 722.788 889.493 722.004C887.375 721.181 885.414 720.201 883.609 719.064C881.805 717.926 880.295 716.515 879.079 714.829C877.902 713.143 877.314 710.947 877.314 708.242C877.314 705.615 877.863 703.478 878.961 701.831C880.099 700.184 881.491 698.929 883.139 698.067C884.786 697.165 886.532 696.557 888.375 696.244C890.258 695.93 891.965 695.773 893.494 695.773C897.378 695.773 899.319 696.557 899.319 698.126C900.143 698.126 900.986 698.224 901.849 698.42C902.752 698.616 903.556 698.969 904.262 699.478C904.968 699.949 905.537 700.615 905.968 701.478C906.439 702.301 906.674 703.38 906.674 704.713Z" fill="url(#paint36_radial_168_91)"/>
</g>
<defs>
<filter id="filter0_d_168_91" x="0" y="0" width="1103" height="769" filterUnits="userSpaceOnUse" color-interpolation-filters="sRGB">
<feFlood flood-opacity="0" result="BackgroundImageFix"/>
<feColorMatrix in="SourceAlpha" type="matrix" values="0 0 0 0 0 0 0 0 0 0 0 0 0 0 0 0 0 0 127 0" result="hardAlpha"/>
<feOffset dx="10" dy="10"/>
<feGaussianBlur stdDeviation="5"/>
<feComposite in2="hardAlpha" operator="out"/>
<feColorMatrix type="matrix" values="0 0 0 0 0 0 0 0 0 0 0 0 0 0 0 0 0 0 0.25 0"/>
<feBlend mode="normal" in2="BackgroundImageFix" result="effect1_dropShadow_168_91"/>
<feBlend mode="normal" in="SourceGraphic" in2="effect1_dropShadow_168_91" result="shape"/>
</filter>
<radialGradient id="paint0_radial_168_91" cx="0" cy="0" r="1" gradientUnits="userSpaceOnUse" gradientTransform="translate(541.5 374.5) rotate(90) scale(374.5 541.5)">
<stop offset="0.0528846" stop-color="#577BDD"/>
<stop offset="0.271635" stop-color="#4558AA"/>
<stop offset="0.716346" stop-color="#3B40C4"/>
</radialGradient>
<radialGradient id="paint1_radial_168_91" cx="0" cy="0" r="1" gradientUnits="userSpaceOnUse" gradientTransform="translate(541.5 374.5) rotate(90) scale(374.5 541.5)">
<stop offset="0.0528846" stop-color="#577BDD"/>
<stop offset="0.271635" stop-color="#4558AA"/>
<stop offset="0.716346" stop-color="#3B40C4"/>
</radialGradient>
<radialGradient id="paint2_radial_168_91" cx="0" cy="0" r="1" gradientUnits="userSpaceOnUse" gradientTransform="translate(541.5 374.5) rotate(90) scale(374.5 541.5)">
<stop offset="0.0528846" stop-color="#577BDD"/>
<stop offset="0.271635" stop-color="#4558AA"/>
<stop offset="0.716346" stop-color="#3B40C4"/>
</radialGradient>
<radialGradient id="paint3_radial_168_91" cx="0" cy="0" r="1" gradientUnits="userSpaceOnUse" gradientTransform="translate(541.5 374.5) rotate(90) scale(374.5 541.5)">
<stop offset="0.0528846" stop-color="#577BDD"/>
<stop offset="0.271635" stop-color="#4558AA"/>
<stop offset="0.716346" stop-color="#3B40C4"/>
</radialGradient>
<radialGradient id="paint4_radial_168_91" cx="0" cy="0" r="1" gradientUnits="userSpaceOnUse" gradientTransform="translate(541.5 374.5) rotate(90) scale(374.5 541.5)">
<stop offset="0.0528846" stop-color="#577BDD"/>
<stop offset="0.271635" stop-color="#4558AA"/>
<stop offset="0.716346" stop-color="#3B40C4"/>
</radialGradient>
<radialGradient id="paint5_radial_168_91" cx="0" cy="0" r="1" gradientUnits="userSpaceOnUse" gradientTransform="translate(541.5 374.5) rotate(90) scale(374.5 541.5)">
<stop offset="0.0528846" stop-color="#577BDD"/>
<stop offset="0.271635" stop-color="#4558AA"/>
<stop offset="0.716346" stop-color="#3B40C4"/>
</radialGradient>
<radialGradient id="paint6_radial_168_91" cx="0" cy="0" r="1" gradientUnits="userSpaceOnUse" gradientTransform="translate(541.5 374.5) rotate(90) scale(374.5 541.5)">
<stop offset="0.0528846" stop-color="#577BDD"/>
<stop offset="0.271635" stop-color="#4558AA"/>
<stop offset="0.716346" stop-color="#3B40C4"/>
</radialGradient>
<radialGradient id="paint7_radial_168_91" cx="0" cy="0" r="1" gradientUnits="userSpaceOnUse" gradientTransform="translate(541.5 374.5) rotate(90) scale(374.5 541.5)">
<stop offset="0.0528846" stop-color="#577BDD"/>
<stop offset="0.271635" stop-color="#4558AA"/>
<stop offset="0.716346" stop-color="#3B40C4"/>
</radialGradient>
<radialGradient id="paint8_radial_168_91" cx="0" cy="0" r="1" gradientUnits="userSpaceOnUse" gradientTransform="translate(541.5 374.5) rotate(90) scale(374.5 541.5)">
<stop offset="0.0528846" stop-color="#577BDD"/>
<stop offset="0.271635" stop-color="#4558AA"/>
<stop offset="0.716346" stop-color="#3B40C4"/>
</radialGradient>
<radialGradient id="paint9_radial_168_91" cx="0" cy="0" r="1" gradientUnits="userSpaceOnUse" gradientTransform="translate(541.5 374.5) rotate(90) scale(374.5 541.5)">
<stop offset="0.0528846" stop-color="#577BDD"/>
<stop offset="0.271635" stop-color="#4558AA"/>
<stop offset="0.716346" stop-color="#3B40C4"/>
</radialGradient>
<radialGradient id="paint10_radial_168_91" cx="0" cy="0" r="1" gradientUnits="userSpaceOnUse" gradientTransform="translate(541.5 374.5) rotate(90) scale(374.5 541.5)">
<stop offset="0.0528846" stop-color="#577BDD"/>
<stop offset="0.271635" stop-color="#4558AA"/>
<stop offset="0.716346" stop-color="#3B40C4"/>
</radialGradient>
<radialGradient id="paint11_radial_168_91" cx="0" cy="0" r="1" gradientUnits="userSpaceOnUse" gradientTransform="translate(541.5 374.5) rotate(90) scale(374.5 541.5)">
<stop offset="0.0528846" stop-color="#577BDD"/>
<stop offset="0.271635" stop-color="#4558AA"/>
<stop offset="0.716346" stop-color="#3B40C4"/>
</radialGradient>
<radialGradient id="paint12_radial_168_91" cx="0" cy="0" r="1" gradientUnits="userSpaceOnUse" gradientTransform="translate(541.5 374.5) rotate(90) scale(374.5 541.5)">
<stop offset="0.0528846" stop-color="#577BDD"/>
<stop offset="0.271635" stop-color="#4558AA"/>
<stop offset="0.716346" stop-color="#3B40C4"/>
</radialGradient>
<radialGradient id="paint13_radial_168_91" cx="0" cy="0" r="1" gradientUnits="userSpaceOnUse" gradientTransform="translate(541.5 374.5) rotate(90) scale(374.5 541.5)">
<stop offset="0.0528846" stop-color="#577BDD"/>
<stop offset="0.271635" stop-color="#4558AA"/>
<stop offset="0.716346" stop-color="#3B40C4"/>
</radialGradient>
<radialGradient id="paint14_radial_168_91" cx="0" cy="0" r="1" gradientUnits="userSpaceOnUse" gradientTransform="translate(541.5 374.5) rotate(90) scale(374.5 541.5)">
<stop offset="0.0528846" stop-color="#577BDD"/>
<stop offset="0.271635" stop-color="#4558AA"/>
<stop offset="0.716346" stop-color="#3B40C4"/>
</radialGradient>
<radialGradient id="paint15_radial_168_91" cx="0" cy="0" r="1" gradientUnits="userSpaceOnUse" gradientTransform="translate(541.5 374.5) rotate(90) scale(374.5 541.5)">
<stop offset="0.0528846" stop-color="#577BDD"/>
<stop offset="0.271635" stop-color="#4558AA"/>
<stop offset="0.716346" stop-color="#3B40C4"/>
</radialGradient>
<radialGradient id="paint16_radial_168_91" cx="0" cy="0" r="1" gradientUnits="userSpaceOnUse" gradientTransform="translate(541.5 374.5) rotate(90) scale(374.5 541.5)">
<stop offset="0.0528846" stop-color="#577BDD"/>
<stop offset="0.271635" stop-color="#4558AA"/>
<stop offset="0.716346" stop-color="#3B40C4"/>
</radialGradient>
<radialGradient id="paint17_radial_168_91" cx="0" cy="0" r="1" gradientUnits="userSpaceOnUse" gradientTransform="translate(541.5 374.5) rotate(90) scale(374.5 541.5)">
<stop offset="0.0528846" stop-color="#577BDD"/>
<stop offset="0.271635" stop-color="#4558AA"/>
<stop offset="0.716346" stop-color="#3B40C4"/>
</radialGradient>
<radialGradient id="paint18_radial_168_91" cx="0" cy="0" r="1" gradientUnits="userSpaceOnUse" gradientTransform="translate(541.5 374.5) rotate(90) scale(374.5 541.5)">
<stop offset="0.0528846" stop-color="#577BDD"/>
<stop offset="0.271635" stop-color="#4558AA"/>
<stop offset="0.716346" stop-color="#3B40C4"/>
</radialGradient>
<radialGradient id="paint19_radial_168_91" cx="0" cy="0" r="1" gradientUnits="userSpaceOnUse" gradientTransform="translate(541.5 374.5) rotate(90) scale(374.5 541.5)">
<stop offset="0.0528846" stop-color="#577BDD"/>
<stop offset="0.271635" stop-color="#4558AA"/>
<stop offset="0.716346" stop-color="#3B40C4"/>
</radialGradient>
<radialGradient id="paint20_radial_168_91" cx="0" cy="0" r="1" gradientUnits="userSpaceOnUse" gradientTransform="translate(541.5 374.5) rotate(90) scale(374.5 541.5)">
<stop offset="0.0528846" stop-color="#577BDD"/>
<stop offset="0.271635" stop-color="#4558AA"/>
<stop offset="0.716346" stop-color="#3B40C4"/>
</radialGradient>
<radialGradient id="paint21_radial_168_91" cx="0" cy="0" r="1" gradientUnits="userSpaceOnUse" gradientTransform="translate(541.5 374.5) rotate(90) scale(374.5 541.5)">
<stop offset="0.0528846" stop-color="#577BDD"/>
<stop offset="0.271635" stop-color="#4558AA"/>
<stop offset="0.716346" stop-color="#3B40C4"/>
</radialGradient>
<radialGradient id="paint22_radial_168_91" cx="0" cy="0" r="1" gradientUnits="userSpaceOnUse" gradientTransform="translate(541.5 374.5) rotate(90) scale(374.5 541.5)">
<stop offset="0.0528846" stop-color="#577BDD"/>
<stop offset="0.271635" stop-color="#4558AA"/>
<stop offset="0.716346" stop-color="#3B40C4"/>
</radialGradient>
<radialGradient id="paint23_radial_168_91" cx="0" cy="0" r="1" gradientUnits="userSpaceOnUse" gradientTransform="translate(541.5 374.5) rotate(90) scale(374.5 541.5)">
<stop offset="0.0528846" stop-color="#577BDD"/>
<stop offset="0.271635" stop-color="#4558AA"/>
<stop offset="0.716346" stop-color="#3B40C4"/>
</radialGradient>
<radialGradient id="paint24_radial_168_91" cx="0" cy="0" r="1" gradientUnits="userSpaceOnUse" gradientTransform="translate(541.5 374.5) rotate(90) scale(374.5 541.5)">
<stop offset="0.0528846" stop-color="#577BDD"/>
<stop offset="0.271635" stop-color="#4558AA"/>
<stop offset="0.716346" stop-color="#3B40C4"/>
</radialGradient>
<radialGradient id="paint25_radial_168_91" cx="0" cy="0" r="1" gradientUnits="userSpaceOnUse" gradientTransform="translate(541.5 374.5) rotate(90) scale(374.5 541.5)">
<stop offset="0.0528846" stop-color="#577BDD"/>
<stop offset="0.271635" stop-color="#4558AA"/>
<stop offset="0.716346" stop-color="#3B40C4"/>
</radialGradient>
<radialGradient id="paint26_radial_168_91" cx="0" cy="0" r="1" gradientUnits="userSpaceOnUse" gradientTransform="translate(541.5 374.5) rotate(90) scale(374.5 541.5)">
<stop offset="0.0528846" stop-color="#577BDD"/>
<stop offset="0.271635" stop-color="#4558AA"/>
<stop offset="0.716346" stop-color="#3B40C4"/>
</radialGradient>
<radialGradient id="paint27_radial_168_91" cx="0" cy="0" r="1" gradientUnits="userSpaceOnUse" gradientTransform="translate(541.5 374.5) rotate(90) scale(374.5 541.5)">
<stop offset="0.0528846" stop-color="#577BDD"/>
<stop offset="0.271635" stop-color="#4558AA"/>
<stop offset="0.716346" stop-color="#3B40C4"/>
</radialGradient>
<radialGradient id="paint28_radial_168_91" cx="0" cy="0" r="1" gradientUnits="userSpaceOnUse" gradientTransform="translate(541.5 374.5) rotate(90) scale(374.5 541.5)">
<stop offset="0.0528846" stop-color="#577BDD"/>
<stop offset="0.271635" stop-color="#4558AA"/>
<stop offset="0.716346" stop-color="#3B40C4"/>
</radialGradient>
<radialGradient id="paint29_radial_168_91" cx="0" cy="0" r="1" gradientUnits="userSpaceOnUse" gradientTransform="translate(541.5 374.5) rotate(90) scale(374.5 541.5)">
<stop offset="0.0528846" stop-color="#577BDD"/>
<stop offset="0.271635" stop-color="#4558AA"/>
<stop offset="0.716346" stop-color="#3B40C4"/>
</radialGradient>
<radialGradient id="paint30_radial_168_91" cx="0" cy="0" r="1" gradientUnits="userSpaceOnUse" gradientTransform="translate(541.5 374.5) rotate(90) scale(374.5 541.5)">
<stop offset="0.0528846" stop-color="#577BDD"/>
<stop offset="0.271635" stop-color="#4558AA"/>
<stop offset="0.716346" stop-color="#3B40C4"/>
</radialGradient>
<radialGradient id="paint31_radial_168_91" cx="0" cy="0" r="1" gradientUnits="userSpaceOnUse" gradientTransform="translate(541.5 374.5) rotate(90) scale(374.5 541.5)">
<stop offset="0.0528846" stop-color="#577BDD"/>
<stop offset="0.271635" stop-color="#4558AA"/>
<stop offset="0.716346" stop-color="#3B40C4"/>
</radialGradient>
<radialGradient id="paint32_radial_168_91" cx="0" cy="0" r="1" gradientUnits="userSpaceOnUse" gradientTransform="translate(541.5 374.5) rotate(90) scale(374.5 541.5)">
<stop offset="0.0528846" stop-color="#577BDD"/>
<stop offset="0.271635" stop-color="#4558AA"/>
<stop offset="0.716346" stop-color="#3B40C4"/>
</radialGradient>
<radialGradient id="paint33_radial_168_91" cx="0" cy="0" r="1" gradientUnits="userSpaceOnUse" gradientTransform="translate(541.5 374.5) rotate(90) scale(374.5 541.5)">
<stop offset="0.0528846" stop-color="#577BDD"/>
<stop offset="0.271635" stop-color="#4558AA"/>
<stop offset="0.716346" stop-color="#3B40C4"/>
</radialGradient>
<radialGradient id="paint34_radial_168_91" cx="0" cy="0" r="1" gradientUnits="userSpaceOnUse" gradientTransform="translate(541.5 374.5) rotate(90) scale(374.5 541.5)">
<stop offset="0.0528846" stop-color="#577BDD"/>
<stop offset="0.271635" stop-color="#4558AA"/>
<stop offset="0.716346" stop-color="#3B40C4"/>
</radialGradient>
<radialGradient id="paint35_radial_168_91" cx="0" cy="0" r="1" gradientUnits="userSpaceOnUse" gradientTransform="translate(541.5 374.5) rotate(90) scale(374.5 541.5)">
<stop offset="0.0528846" stop-color="#577BDD"/>
<stop offset="0.271635" stop-color="#4558AA"/>
<stop offset="0.716346" stop-color="#3B40C4"/>
</radialGradient>
<radialGradient id="paint36_radial_168_91" cx="0" cy="0" r="1" gradientUnits="userSpaceOnUse" gradientTransform="translate(541.5 374.5) rotate(90) scale(374.5 541.5)">
<stop offset="0.0528846" stop-color="#577BDD"/>
<stop offset="0.271635" stop-color="#4558AA"/>
<stop offset="0.716346" stop-color="#3B40C4"/>
</radialGradient>
</defs>
</svg>
