<svg width="1258" height="853" viewBox="0 0 1258 853" fill="none" xmlns="http://www.w3.org/2000/svg">
<path d="M345.098 204.93C314.37 285.915 333.772 376.111 347.314 411.086C349.037 409.608 354.258 405.027 361.349 398.524C368.44 392.022 380.554 383.5 385.724 380.052C383.016 372.17 377.304 349.313 376.122 320.939C374.645 285.471 378.338 238.181 401.974 190.89C425.611 143.6 487.657 70.4477 582.942 51.9749C678.226 33.5021 793.455 66.7532 857.717 170.94C909.126 254.289 896.865 345.077 884.308 380.052C886.524 381.776 892.58 385.963 899.08 388.919C905.581 391.874 918.531 404.929 924.194 411.086C925.425 407.392 928.774 397.047 932.319 385.224C936.751 370.446 948.57 321.678 937.49 254.437C926.41 187.196 893.91 130.3 841.466 79.3151C789.023 28.3302 701.124 -6.39866 608.055 0.990454C533.6 6.90175 470.668 44.8325 448.509 63.059C426.842 76.6057 375.825 123.945 345.098 204.93Z" fill="#FF0000"/>
<path d="M359.133 439.163L370.213 461.331C360.364 462.316 325.746 467.095 266.064 478.327C191.461 492.366 145.665 510.1 105.04 532.267C72.5398 550.001 66.8769 576.11 68.108 586.947C68.8466 585.469 70.7671 581.922 72.5398 579.558C74.7557 576.602 91.0059 552.218 136.063 534.484C181.12 516.75 191.461 513.795 260.894 498.278C330.326 482.76 435.952 474.632 478.054 471.677C520.157 468.721 630.215 466.504 693.738 468.721C757.261 470.938 804.534 475.371 851.807 479.805C889.626 483.352 954.232 494.09 981.808 499.016C1007.66 503.943 1070.59 518.376 1115.5 536.701C1160.41 555.026 1181.49 578.819 1186.41 588.425C1187.15 585.223 1187.59 576.898 1183.46 569.213C1178.29 559.607 1161.3 539.657 1128.8 524.878C1096.3 510.1 1061.58 499.755 1020.96 488.672C988.456 479.805 925.672 469.706 898.342 465.765L911.637 439.163C898.834 424.632 865.546 393.648 834.819 385.963C804.091 378.278 774.25 386.701 763.17 391.873C768.587 396.307 781.932 407.687 791.977 417.736C802.023 427.785 812.905 448.032 817.091 456.898L779.42 453.942C765.14 428.573 716.34 377.982 635.385 378.573C554.43 379.164 506.615 427.095 492.827 450.987L455.156 453.942C455.895 450.987 459.588 442.12 468.452 430.297C477.316 418.474 498.244 399.755 507.6 391.873C494.058 386.454 457.52 378.868 419.702 391.873C381.883 404.878 363.565 428.819 359.133 439.163Z" fill="#FF0000"/>
<path d="M523.112 302.466C523.112 333.889 497.648 359.362 466.236 359.362C434.825 359.362 409.361 333.889 409.361 302.466C409.361 271.043 434.825 245.57 466.236 245.57C497.648 245.57 523.112 271.043 523.112 302.466Z" fill="#FF0000"/>
<path d="M716.636 264.781C716.636 309.671 680.259 346.062 635.385 346.062C590.512 346.062 554.135 309.671 554.135 264.781C554.135 219.892 590.512 183.501 635.385 183.501C680.259 183.501 716.636 219.892 716.636 264.781Z" fill="#FF0000"/>
<path d="M861.41 302.466C861.41 333.889 835.946 359.362 804.534 359.362C773.123 359.362 747.659 333.889 747.659 302.466C747.659 271.043 773.123 245.57 804.534 245.57C835.946 245.57 861.41 271.043 861.41 302.466Z" fill="#FF0000"/>
<path d="M938.814 824.718H942.507V845.408C943 847.624 945.314 852.206 950.633 852.797C955.951 853.388 958.758 852.55 959.496 852.058V846.885C957.773 847.624 953.735 848.807 951.371 847.624C949.008 846.442 948.417 844.669 948.417 843.93V824.718H958.758V819.546H948.417V809.94H942.507V819.546H938.814V824.718Z" fill="#040404"/>
<path fill-rule="evenodd" clip-rule="evenodd" d="M903.359 832.107C904.098 828.413 907.348 820.728 914.439 819.546C923.303 818.068 929.951 823.979 931.428 826.935C932.61 829.299 932.413 834.324 932.166 836.541H908.53C908.53 839.989 910.155 847.033 916.655 847.624C923.155 848.215 929.212 845.408 931.428 843.93V850.58C928.966 851.319 922.564 852.797 916.655 852.797C909.269 852.797 904.098 844.669 903.359 841.713C902.769 839.348 903.113 834.324 903.359 832.107ZM926.996 832.107H908.53C909.269 829.89 911.484 825.161 914.439 823.979C918.132 822.501 920.348 823.24 923.303 824.718C925.666 825.9 926.75 830.137 926.996 832.107Z" fill="#040404"/>
<path fill-rule="evenodd" clip-rule="evenodd" d="M867.166 852.058V806.984L872.336 806.984V823.979C873.321 822.255 876.621 818.807 881.939 818.807C888.587 818.807 893.757 822.501 895.234 829.89C896.712 837.28 895.234 843.191 892.28 847.624C889.325 852.058 883.416 852.797 878.984 852.797C875.439 852.797 873.075 851.319 872.336 850.58V852.058H867.166ZM872.336 828.413V846.146C874.552 847.378 880.018 849.398 884.155 847.624C889.325 845.408 890.064 838.757 890.064 833.585C890.064 828.413 887.109 824.718 881.939 823.979C877.802 823.388 873.814 826.688 872.336 828.413Z" fill="#040404"/>
<path fill-rule="evenodd" clip-rule="evenodd" d="M808.813 820.285C812.506 819.299 820.927 817.772 825.063 819.546C829.2 821.319 832.204 825.211 833.188 826.935V852.058H828.018V849.102C825.31 850.334 819.154 852.797 816.2 852.797C812.506 852.797 806.597 851.319 805.859 846.146C805.12 840.974 807.336 834.324 813.245 832.846C817.972 831.664 824.571 831.368 827.279 831.368V827.674C827.033 825.95 825.063 822.797 819.154 823.979C813.245 825.161 809.798 825.95 808.813 826.196V820.285ZM827.279 843.93V835.063C822.355 835.555 812.359 836.984 811.768 838.757C811.029 840.974 810.291 844.669 814.722 847.624C818.268 849.989 824.571 846.146 827.279 843.93Z" fill="#040404"/>
<path d="M759.324 852.058V820.284H764.495V824.718C766.464 823.24 771.438 820.285 775.574 820.285H779.268V826.196C778.036 825.703 774.688 825.014 771.142 826.196C767.597 827.378 765.233 829.152 764.495 829.89V852.058H759.324Z" fill="#040404"/>
<path fill-rule="evenodd" clip-rule="evenodd" d="M719.438 838.757V832.107C719.438 830.137 720.472 825.457 724.608 822.501C729.779 818.807 739.381 818.807 743.813 822.501C747.358 825.457 748.737 830.137 748.983 832.107V839.496C748.983 841.713 747.949 846.885 743.813 849.841C738.642 853.536 729.779 853.536 724.608 849.841C720.472 846.885 719.438 841.22 719.438 838.757ZM724.608 838.757V832.107C724.608 831.615 725.199 829.89 727.563 826.935C729.926 823.979 733.472 823.733 734.949 823.979C736.18 823.979 739.085 824.57 740.858 826.935C742.631 829.299 743.074 831.368 743.074 832.107V838.757C742.828 840.481 741.745 844.373 739.381 846.146C736.426 848.363 731.994 848.363 728.301 846.146C725.347 844.373 724.608 840.481 724.608 838.757Z" fill="#040404"/>
<path d="M699.494 852.057V824.718H695.801V820.284H699.494C699.002 817.575 698.903 811.565 702.449 809.201C705.994 806.836 713.282 806.737 716.483 806.984V812.157C713.775 811.91 707.915 811.713 706.142 812.895C704.369 814.078 704.418 818.314 704.665 820.285H714.267V824.718H704.665V852.058L699.494 852.057Z" fill="#040404"/>
<path d="M1099.84 844.669C1100.82 847.624 1104.27 853.388 1110.18 852.797C1116.09 852.206 1120.03 849.595 1121.26 848.363V852.058H1126.43V819.546H1121.26V843.93C1119.04 845.654 1113.58 848.807 1109.44 847.624C1105.3 846.442 1104.76 842.206 1105.01 840.235V819.546H1099.84V844.669Z" fill="#040404"/>
<path d="M963.189 824.718H966.883V845.408C967.375 847.624 969.69 852.206 975.008 852.797C980.326 853.388 983.133 852.55 983.871 852.058V846.885C982.148 847.624 978.11 848.807 975.746 847.624C973.383 846.442 972.792 844.669 972.792 843.93V824.718H983.133V819.546H972.792V809.94H966.883V819.546H963.189V824.718Z" fill="#040404"/>
<path fill-rule="evenodd" clip-rule="evenodd" d="M1226.15 832.107C1226.88 828.413 1230.13 820.728 1237.23 819.546C1246.09 818.068 1252.74 823.979 1254.21 826.935C1255.4 829.299 1255.2 834.324 1254.95 836.541H1231.32C1231.32 839.989 1232.94 847.033 1239.44 847.624C1245.94 848.215 1252 845.408 1254.21 843.93V850.58C1251.75 851.319 1245.35 852.797 1239.44 852.797C1232.06 852.797 1226.88 844.669 1226.15 841.713C1225.56 839.348 1225.9 834.324 1226.15 832.107ZM1249.78 832.107H1231.32C1232.06 829.89 1234.27 825.161 1237.23 823.979C1240.92 822.501 1243.13 823.24 1246.09 824.718C1248.45 825.9 1249.54 830.137 1249.78 832.107Z" fill="#040404"/>
<path d="M1162.98 843.929C1163.97 846.884 1167.41 852.648 1173.32 852.057C1179.23 851.466 1183.17 848.855 1184.4 847.623V851.318H1189.57V818.806H1184.4V843.19C1182.19 844.914 1176.72 848.067 1172.59 846.884C1168.45 845.702 1167.91 841.466 1168.15 839.495V818.806H1162.98V843.929Z" fill="#040404"/>
<path d="M1201.77 851.318V819.544H1206.94V823.978C1208.91 822.5 1213.88 819.545 1218.02 819.545H1221.71V825.456C1220.48 824.963 1217.13 824.274 1213.59 825.456C1210.04 826.638 1207.68 828.412 1206.94 829.151V851.318H1201.77Z" fill="#040404"/>
<path d="M1076.94 852.057V824.717H1073.25V820.284H1076.94C1076.45 817.575 1076.35 811.565 1079.89 809.2C1083.44 806.836 1090.73 806.737 1093.93 806.983V812.156C1091.22 811.91 1085.36 811.713 1083.59 812.895C1081.82 814.077 1081.86 818.314 1082.11 820.284H1091.71V824.717H1082.11V852.057L1076.94 852.057Z" fill="#040404"/>
<path fill-rule="evenodd" clip-rule="evenodd" d="M989.781 831.368C990.519 827.674 993.769 819.989 1000.86 818.807C1009.72 817.329 1016.37 823.24 1017.85 826.196C1019.03 828.56 1018.83 833.585 1018.59 835.802H994.951C994.951 839.25 996.576 846.294 1003.08 846.885C1009.58 847.477 1015.63 844.669 1017.85 843.191V849.841C1015.39 850.58 1008.99 852.058 1003.08 852.058C995.69 852.058 990.519 843.93 989.781 840.974C989.19 838.61 989.534 833.585 989.781 831.368ZM1013.42 831.368H994.951C995.69 829.152 997.906 824.422 1000.86 823.24C1004.55 821.762 1006.77 822.501 1009.72 823.979C1012.09 825.161 1013.17 829.398 1013.42 831.368Z" fill="#040404"/>
<path d="M1028.19 850.58V818.806H1033.36V823.24C1035.33 821.762 1040.3 818.807 1044.44 818.807H1048.13V824.718C1046.9 824.225 1043.55 823.536 1040.01 824.718C1036.46 825.9 1034.1 827.674 1033.36 828.413V850.58H1028.19Z" fill="#040404"/>
<path d="M1135.29 824.718H1138.99V845.408C1139.48 847.624 1141.79 852.206 1147.11 852.797C1152.43 853.388 1155.24 852.55 1155.98 852.058V846.885C1154.25 847.624 1150.21 848.807 1147.85 847.624C1145.49 846.442 1144.9 844.669 1144.9 843.93V824.718H1155.24V819.546H1144.9V809.94H1138.99V819.546H1135.29V824.718Z" fill="#040404"/>
<path d="M165.548 617.73H54.0129C49.8274 617.73 38.5017 619.356 26.6835 625.858C11.9106 633.986 -6.55545 650.981 3.0469 682.015C10.7288 706.843 36.7782 716.005 48.8427 717.483H163.332C168.257 718.961 177.957 724.281 177.366 733.739C176.776 743.197 167.764 746.054 163.332 746.301C128.616 746.793 58.2973 747.483 54.7519 746.301C50.32 744.823 47.3654 742.606 45.1495 739.65C43.3768 737.286 42.4411 733.739 42.1949 732.261H0.0920042C-0.15421 734.478 -0.0557242 740.389 2.30793 746.301C5.2625 753.69 8.21707 761.818 19.2967 770.685C28.1604 777.778 42.687 782.015 48.8424 783.246C87.7442 783.493 167.468 783.69 175.15 782.507C184.753 781.03 195.832 775.857 206.173 767.729C216.514 759.601 221.685 744.823 221.685 737.434C221.685 730.045 222.423 710.833 204.696 695.316C190.514 682.902 169.241 680.291 160.377 680.538H60.6607C56.9675 679.552 49.581 675.809 49.581 668.715C49.581 661.621 56.9675 656.892 60.6607 655.415H160.377C161.116 655.415 163.48 656.006 167.025 658.37C170.571 660.735 171.457 666.252 171.457 668.715H214.298C214.791 664.774 213.56 653.346 204.696 639.159C195.832 624.971 174.904 618.962 165.548 617.73Z" fill="#040404"/>
<path d="M243.844 617.73V782.507H288.901V703.444L407.823 783.246L481.687 782.507L346.516 695.316L472.823 617.73H398.22L288.901 688.666V617.73H243.844Z" fill="#040404"/>
<path d="M542.994 617.73V783.246H737.257V746.301H588.052V617.73H542.994Z" fill="#040404"/>
<path d="M759.417 639.159V783.246H801.519V639.159H759.417Z" fill="#040404"/>
<path d="M823.678 639.159V783.246H865.781V687.188L983.964 783.246H1025.33V639.159H983.225V735.217L865.042 639.159H823.678Z" fill="#040404"/>
<path d="M1046.75 639.159V783.246H1089.59V716.744L1187.83 783.246H1258L1140.56 707.138L1250.61 639.159H1179.7L1089.59 697.533V639.159H1046.75Z" fill="#040404"/>
</svg>
